<?xml version="1.0" encoding="utf-8"?>
<!-- Generator: Adobe Illustrator 28.0.0, SVG Export Plug-In . SVG Version: 6.00 Build 0)  -->
<svg version="1.1" id="Ebene_1" xmlns="http://www.w3.org/2000/svg" xmlns:xlink="http://www.w3.org/1999/xlink" x="0px" y="0px"
	 viewBox="0 0 53.9 53.9" style="enable-background:new 0 0 53.9 53.9;" xml:space="preserve">
<style type="text/css">
	.st0{clip-path:url(#SVGID_00000019646742365523350060000018440886047627219369_);fill:#00ABC4;}
</style>
<g>
	<defs>
		<rect id="SVGID_1_" x="6.6" y="7.4" width="39" height="39"/>
	</defs>
	<clipPath id="SVGID_00000111912274314215295030000015664601536093140134_">
		<use xlink:href="#SVGID_1_"  style="overflow:visible;"/>
	</clipPath>
	<path style="clip-path:url(#SVGID_00000111912274314215295030000015664601536093140134_);fill:#00ABC4;" d="M42.1,36.3"/>
	<path style="clip-path:url(#SVGID_00000111912274314215295030000015664601536093140134_);fill:#00ABC4;" d="M32.2,20.6
		c0-3.3-2.7-6-6-6c-3.3,0-6,2.7-6,6c0,3.3,2.7,6,6,6C29.5,26.6,32.2,23.9,32.2,20.6 M37.1,35.9v-1.9c0-1,0-3.2-3.1-4.9c0,0,0,0,0,0
		c-0.1,0-0.1-0.1-0.2-0.1c-0.2-0.1-0.4-0.2-0.6-0.3c-0.2-0.1-0.5-0.2-0.7-0.3c-0.2-0.1-0.5-0.2-0.7-0.3c-0.3-0.1-0.5-0.2-0.8-0.3
		c-0.2,0-0.3-0.1-0.5-0.1c-0.4-0.1-0.8-0.2-1.2-0.3c-0.1,0-0.1,0-0.2,0c-0.4-0.1-0.8-0.1-1.2-0.2c-0.1,0-0.2,0-0.3,0
		c-0.4,0-0.9-0.1-1.4-0.1c0,0,0,0,0,0c0,0,0,0,0,0c0,0,0,0,0,0c0,0,0,0,0,0c-0.5,0-0.9,0-1.4,0.1c-0.1,0-0.2,0-0.3,0
		c-0.4,0-0.8,0.1-1.2,0.2c-0.1,0-0.1,0-0.2,0c-0.4,0.1-0.8,0.2-1.2,0.3c-0.2,0-0.3,0.1-0.5,0.1c-0.3,0.1-0.5,0.2-0.8,0.3
		c-0.2,0.1-0.5,0.2-0.7,0.3c-0.2,0.1-0.5,0.2-0.7,0.3c-0.2,0.1-0.4,0.2-0.6,0.3c-0.1,0-0.1,0.1-0.2,0.1c0,0,0,0,0,0
		c-3.1,1.7-3.1,3.9-3.1,4.9v1.9h7.7h3.2h0h3.2H37.1z"/>
	<path style="clip-path:url(#SVGID_00000111912274314215295030000015664601536093140134_);fill:#00ABC4;" d="M27.8,10.3
		c8.4,0.9,15,8,15,16.6s-6.6,15.8-15,16.6c0,0,0,0,0,0c-0.5,0.1-1.1,0.1-1.7,0.1c-0.6,0-1.1,0-1.7-0.1c0,0,0,0,0,0
		c-8.4-0.9-15-8-15-16.6s6.6-15.8,15-16.6c0,0,0,0,0,0c0.5-0.1,1.1-0.1,1.7-0.1C26.7,10.2,27.2,10.2,27.8,10.3
		C27.8,10.3,27.8,10.3,27.8,10.3 M41.3,14.8c-0.1-0.1-0.2-0.2-0.3-0.3c-2.8-3.3-6.6-5.7-11-6.6c0,0,0,0,0,0
		c-0.6-0.1-1.2-0.2-1.9-0.3c0,0-0.1,0-0.1,0c-0.6-0.1-1.2-0.1-1.9-0.1c0,0,0,0,0,0s0,0,0,0c-0.6,0-1.3,0-1.9,0.1c0,0-0.1,0-0.1,0
		c-0.6,0.1-1.3,0.2-1.9,0.3c0,0,0,0,0,0c-4.4,0.9-8.3,3.3-11,6.6c-0.1,0.1-0.2,0.2-0.3,0.3c-0.3,0.3-0.5,0.7-0.8,1
		c-0.1,0.2-0.2,0.3-0.3,0.5c-0.2,0.3-0.4,0.6-0.6,1c-0.1,0.2-0.2,0.4-0.3,0.5c-0.3,0.5-0.5,1-0.7,1.5c-0.1,0.1-0.1,0.3-0.2,0.5
		c-0.1,0.3-0.2,0.6-0.4,0.9h0c-0.7,2-1.1,4.1-1.1,6.3c0,2.2,0.4,4.2,1,6.2h0C7.7,33.4,7.9,33.7,8,34c0.1,0.4,0.3,0.7,0.5,1.1
		c0.1,0.3,0.3,0.6,0.4,0.9c0.1,0.2,0.3,0.5,0.4,0.7c0.2,0.3,0.3,0.5,0.5,0.8c0.1,0.2,0.3,0.4,0.4,0.6c0.2,0.3,0.5,0.6,0.7,0.9
		c0.1,0.1,0.2,0.3,0.3,0.4c2.8,3.3,6.6,5.7,11,6.6c0,0,0,0,0,0c0.6,0.1,1.2,0.2,1.9,0.3c0,0,0.1,0,0.1,0c0.6,0.1,1.2,0.1,1.9,0.1
		c0,0,0,0,0,0s0,0,0,0c0.6,0,1.3,0,1.9-0.1c0,0,0.1,0,0.1,0c0.6-0.1,1.2-0.2,1.9-0.3c0,0,0,0,0,0c4.4-0.9,8.3-3.3,11-6.6
		c0.1-0.1,0.2-0.3,0.3-0.4c0.2-0.3,0.5-0.6,0.7-0.9c0.1-0.2,0.3-0.4,0.4-0.6c0.2-0.3,0.3-0.5,0.5-0.8c0.1-0.2,0.3-0.5,0.4-0.7
		c0.2-0.3,0.3-0.6,0.4-0.9c0.2-0.4,0.3-0.7,0.5-1.1c0.1-0.3,0.2-0.6,0.3-0.9h0c0.6-1.9,1-4,1-6.2c0-2.2-0.4-4.3-1.1-6.3h0
		c-0.1-0.3-0.2-0.6-0.4-0.9c-0.1-0.2-0.1-0.3-0.2-0.5c-0.2-0.5-0.5-1-0.7-1.5c-0.1-0.2-0.2-0.4-0.3-0.5c-0.2-0.3-0.4-0.7-0.6-1
		c-0.1-0.2-0.2-0.3-0.3-0.5C41.8,15.4,41.6,15.1,41.3,14.8"/>
</g>
</svg>
