<?xml version="1.0" encoding="utf-8"?>
<!-- Generator: Adobe Illustrator 28.0.0, SVG Export Plug-In . SVG Version: 6.00 Build 0)  -->
<svg version="1.1" id="Ebene_1" xmlns="http://www.w3.org/2000/svg" xmlns:xlink="http://www.w3.org/1999/xlink" x="0px" y="0px"
	 viewBox="0 0 53.9 53.9" style="enable-background:new 0 0 53.9 53.9;" xml:space="preserve">
<style type="text/css">
	.st0{clip-path:url(#SVGID_00000083780782186903531360000018440953104052411839_);fill:#1D91A6;}
	.st1{clip-path:url(#SVGID_00000083780782186903531360000018440953104052411839_);fill:#FFFFFF;}
</style>
<g>
	<defs>
		<rect id="SVGID_1_" x="1.4" y="1.4" width="51.2" height="51.2"/>
	</defs>
	<clipPath id="SVGID_00000010282174104671747530000016889850724410009267_">
		<use xlink:href="#SVGID_1_"  style="overflow:visible;"/>
	</clipPath>
	<path style="clip-path:url(#SVGID_00000010282174104671747530000016889850724410009267_);fill:#1D91A6;" d="M9.4,1.4
		C5,1.4,1.4,5,1.4,9.4v35c0,4.5,3.6,8.1,8.1,8.1h35c4.5,0,8.1-3.6,8.1-8.1v-35c0-4.5-3.6-8.1-8.1-8.1H9.4z"/>
	<path style="clip-path:url(#SVGID_00000010282174104671747530000016889850724410009267_);fill:#FFFFFF;" d="M21.8,40.2v-25h-4.5
		h-2.6c-1,0-2.3,0.2-1.9,2.2l0.1,0.5C13.7,23.3,16.1,35.5,21.8,40.2 M26.8,42.2c1,0,1.9-0.2,2.8-0.6V15.3h-5.4v26.4
		C25,42,25.9,42.2,26.8,42.2 M39,15.3h-0.6h-2H32v24.9c5.4-4.6,7.9-15.9,8.8-21.5l0,0l0.2-1.1C41.3,15.4,40,15.3,39,15.3"/>
</g>
</svg>
