<?xml version="1.0" encoding="utf-8"?>
<!-- Generator: Adobe Illustrator 28.0.0, SVG Export Plug-In . SVG Version: 6.00 Build 0)  -->
<svg version="1.1" id="Ebene_1" xmlns="http://www.w3.org/2000/svg" xmlns:xlink="http://www.w3.org/1999/xlink" x="0px" y="0px"
	 viewBox="0 0 53.9 53.9" style="enable-background:new 0 0 53.9 53.9;" xml:space="preserve">
<style type="text/css">
	.st0{clip-path:url(#SVGID_00000135658146343381034480000004574090955337723821_);fill:#1D91A6;}
	.st1{clip-path:url(#SVGID_00000135658146343381034480000004574090955337723821_);fill:#FFFFFF;}
</style>
<g>
	<defs>
		<rect id="SVGID_1_" x="1.4" y="1.4" width="51.2" height="51.2"/>
	</defs>
	<clipPath id="SVGID_00000049934674014503392790000005543914322312577967_">
		<use xlink:href="#SVGID_1_"  style="overflow:visible;"/>
	</clipPath>
	<path style="clip-path:url(#SVGID_00000049934674014503392790000005543914322312577967_);fill:#1D91A6;" d="M9.4,1.4
		C5,1.4,1.4,5,1.4,9.4v35c0,4.5,3.6,8.1,8.1,8.1h35c4.5,0,8.1-3.6,8.1-8.1v-35c0-4.5-3.6-8.1-8.1-8.1H9.4z"/>
	<path style="clip-path:url(#SVGID_00000049934674014503392790000005543914322312577967_);fill:#FFFFFF;" d="M37.2,18L33,27.4
		c0,0-0.3,0.8-1.1,0.7c-0.7,0-0.9-0.8-0.9-0.8l-6.1-10.9l-4.1,14.3c0,0-0.2,0.7-0.9,0.7c-0.6,0-1.1-0.6-1.1-0.6l-5.7-5.7
		c0,0,0.5-0.5,1.5-1.4l0.3,0.3l4.6,4.6l4.2-14.4c0,0,0.2-0.8,1-0.8c0.8,0,1.1,0.7,1.1,0.7L32,25l3.4-7.9"/>
	<path style="clip-path:url(#SVGID_00000049934674014503392790000005543914322312577967_);fill:#FFFFFF;" d="M27.3,36.9H10.5V11.6
		h-3v26.4c0,1.1,0.9,2,2,2h3.4h5.2h8.5h2.3C28.1,39,27.5,37.7,27.3,36.9"/>
	<path style="clip-path:url(#SVGID_00000049934674014503392790000005543914322312577967_);fill:#FFFFFF;" d="M40.8,36.8
		c0,1.5-1.2,2.8-2.8,2.8c-1.5,0-2.8-1.2-2.8-2.8c0-1.5,1.2-2.8,2.8-2.8C39.5,34.1,40.8,35.3,40.8,36.8 M46.1,36.8
		c0,0-1.9-5.3-8.2-5.3c-6.1,0-8,5.3-8,5.3s1.7,5.5,8.1,5.5S46.1,36.8,46.1,36.8"/>
</g>
</svg>
