<?xml version="1.0" encoding="utf-8"?>
<!-- Generator: Adobe Illustrator 28.0.0, SVG Export Plug-In . SVG Version: 6.00 Build 0)  -->
<svg version="1.1" id="Ebene_1" xmlns="http://www.w3.org/2000/svg" xmlns:xlink="http://www.w3.org/1999/xlink" x="0px" y="0px"
	 viewBox="0 0 53.9 53.9" style="enable-background:new 0 0 53.9 53.9;" xml:space="preserve">
<style type="text/css">
	.st0{clip-path:url(#SVGID_00000132775579292893144470000002055419000477681325_);fill:#1D91A6;}
	.st1{clip-path:url(#SVGID_00000132775579292893144470000002055419000477681325_);fill:#FFFFFF;}
</style>
<g>
	<defs>
		<rect id="SVGID_1_" x="1.4" y="1.4" width="51.2" height="51.2"/>
	</defs>
	<clipPath id="SVGID_00000183243675433821583960000010433308129281352868_">
		<use xlink:href="#SVGID_1_"  style="overflow:visible;"/>
	</clipPath>
	<path style="clip-path:url(#SVGID_00000183243675433821583960000010433308129281352868_);fill:#1D91A6;" d="M9.4,1.4
		C5,1.4,1.4,5,1.4,9.4v35c0,4.5,3.6,8.1,8.1,8.1h35c4.5,0,8.1-3.6,8.1-8.1v-35c0-4.5-3.6-8.1-8.1-8.1H9.4z"/>
	<path style="clip-path:url(#SVGID_00000183243675433821583960000010433308129281352868_);fill:#FFFFFF;" d="M41.5,25.5
		c-0.1,8-6.6,14.4-14.6,14.3c-8-0.1-14.4-6.6-14.3-14.6c0.1-8,6.6-14.4,14.6-14.3C35.2,11,41.6,17.6,41.5,25.5 M44,25.6
		c0.1-9.3-7.4-16.9-16.6-16.9C18.1,8.6,10.5,16,10.4,25.3c-0.1,9.3,7.4,16.9,16.6,16.9C36.3,42.3,43.9,34.9,44,25.6"/>
	<path style="clip-path:url(#SVGID_00000183243675433821583960000010433308129281352868_);fill:#FFFFFF;" d="M15,23.7
		c0,0.4-0.1,0.8-0.1,1.2c0,0.4,0,0.7,0.1,1.1c0.2,0,0.5,0,0.9,0c-0.1-0.4-0.1-0.9-0.1-1.3c0-0.3,0-0.6,0.1-1H15z M17.2,19.4
		l-0.8-0.5c-0.6,1.1-1.1,2.3-1.3,3.6H16C16.2,21.4,16.6,20.3,17.2,19.4 M21.2,15.8l-0.7-1.2c-1.3,0.9-2.5,2-3.4,3.3l0.8,0.5
		C18.8,17.4,19.9,16.4,21.2,15.8 M25.6,14.8c0.4,0,0.7,0,1.1,0.1v-2.1c-1.9,0.1-3.6,0.6-5.2,1.4l0.8,1.3
		C23.3,15,24.4,14.8,25.6,14.8 M30.9,16.4l1.8-2.3c-1.5-0.8-3.1-1.2-4.9-1.3V15C29,15.3,30,15.8,30.9,16.4 M33.9,19.3l3.1-1.6
		c-0.9-1.2-2-2.3-3.3-3.1l-1.8,2.4C32.7,17.7,33.3,18.5,33.9,19.3 M35.4,23.5h3.9c-0.2-1.7-0.8-3.4-1.6-4.8l-3.2,1.6
		C34.9,21.3,35.2,22.4,35.4,23.5 M39.3,24.9c0-0.1,0-0.1,0-0.2h-3.9c0,1.4-0.3,2.8-0.9,4.1l3.5,1.5C38.9,28.7,39.3,26.8,39.3,24.9"
		/>
	<path style="clip-path:url(#SVGID_00000183243675433821583960000010433308129281352868_);fill:#FFFFFF;" d="M20.6,42.1v1.4
		c0,0,0,2.7,2.7,2.7h7.8c0,0,2.7,0,2.7-2.7v-1.4c-2,0.8-4.3,1.3-6.6,1.3S22.7,42.9,20.6,42.1"/>
	<path style="clip-path:url(#SVGID_00000183243675433821583960000010433308129281352868_);fill:#FFFFFF;" d="M30.3,16.6
		c-0.4-0.1-0.8,0.1-1,0.4l0,0l-2.2,6.1c-1.2,0-2.2,1-2.2,2.3c0,1.3,1,2.3,2.2,2.3c1.2,0,2.2-1,2.2-2.3c0-0.7-0.3-1.3-0.7-1.7
		l2.2-6.2l0,0C30.8,17.2,30.7,16.8,30.3,16.6"/>
</g>
</svg>
