<?xml version="1.0" encoding="utf-8"?>
<!-- Generator: Adobe Illustrator 28.0.0, SVG Export Plug-In . SVG Version: 6.00 Build 0)  -->
<svg version="1.1" id="Ebene_1" xmlns="http://www.w3.org/2000/svg" xmlns:xlink="http://www.w3.org/1999/xlink" x="0px" y="0px"
	 viewBox="0 0 53.9 53.9" style="enable-background:new 0 0 53.9 53.9;" xml:space="preserve">
<style type="text/css">
	.st0{clip-path:url(#SVGID_00000058549857727305987600000001102481963368064400_);fill:#1D91A6;}
	.st1{clip-path:url(#SVGID_00000058549857727305987600000001102481963368064400_);fill:#FFFFFF;}
</style>
<g>
	<defs>
		<rect id="SVGID_1_" x="1.4" y="1.4" width="51.2" height="51.2"/>
	</defs>
	<clipPath id="SVGID_00000088104646913202074350000013916574797053521582_">
		<use xlink:href="#SVGID_1_"  style="overflow:visible;"/>
	</clipPath>
	<path style="clip-path:url(#SVGID_00000088104646913202074350000013916574797053521582_);fill:#1D91A6;" d="M9.4,1.4
		C5,1.4,1.4,5,1.4,9.4v35c0,4.5,3.6,8.1,8.1,8.1h35c4.5,0,8.1-3.6,8.1-8.1v-35c0-4.5-3.6-8.1-8.1-8.1H9.4z"/>
	<path style="clip-path:url(#SVGID_00000088104646913202074350000013916574797053521582_);fill:#FFFFFF;" d="M41.2,37.7H12.8v1
		c0,0,0,5.8,5.8,5.8h16.8c0,0,5.8,0,5.8-5.8V37.7z M41.2,23.1H12.8v12.6h28.4v-12C41.2,23.7,41.2,23.5,41.2,23.1 M41.3,18.7l0-0.4
		c0,0,0.2-2.9-3.6-4.7c-2-0.9-3.7-1.5-5.5-1.8v-1c0-2.1-2.1-2.1-2.1-2.1h-6c-2.1,0-2.1,2.1-2.1,2.1v1c-1.8,0.3-3.5,0.9-5.5,1.8
		c-3.8,1.8-3.6,4.8-3.6,4.8l0,0.3c0,0.1,0,0.3,0,0.3v2h28.4C41.3,20.1,41.3,19.2,41.3,18.7"/>
</g>
</svg>
