<?xml version="1.0" encoding="utf-8"?>
<!-- Generator: Adobe Illustrator 28.0.0, SVG Export Plug-In . SVG Version: 6.00 Build 0)  -->
<svg version="1.1" id="Ebene_1" xmlns="http://www.w3.org/2000/svg" xmlns:xlink="http://www.w3.org/1999/xlink" x="0px" y="0px"
	 viewBox="0 0 53.9 53.9" style="enable-background:new 0 0 53.9 53.9;" xml:space="preserve">
<style type="text/css">
	.st0{clip-path:url(#SVGID_00000015341345540770086010000000123921537400142727_);fill:#00ABC4;}
	.st1{clip-path:url(#SVGID_00000015341345540770086010000000123921537400142727_);fill:#FFFFFF;}
</style>
<g>
	<defs>
		<rect id="SVGID_1_" x="1.1" y="0.8" width="51.2" height="52.1"/>
	</defs>
	<clipPath id="SVGID_00000068645585098782030810000018052934349266119847_">
		<use xlink:href="#SVGID_1_"  style="overflow:visible;"/>
	</clipPath>
	<path style="clip-path:url(#SVGID_00000068645585098782030810000018052934349266119847_);fill:#00ABC4;" d="M9.1,0.8
		c-4.5,0-8.1,3.6-8.1,8.1v35c0,4.5,3.6,8.1,8.1,8.1h35c4.5,0,8.1-3.6,8.1-8.1v-35c0-4.5-3.6-8.1-8.1-8.1H9.1z"/>
	<path style="clip-path:url(#SVGID_00000068645585098782030810000018052934349266119847_);fill:#FFFFFF;" d="M16,29.1v5.7v1v0.3
		h20.4v-0.2v-1.1V22.3c0-0.9-0.9-0.9-0.9-0.9h-2.2c-0.9,0-0.9,0.9-0.9,0.9v12.5h-1.4v-8.4c0-0.9-0.9-0.9-0.9-0.9h-2.2
		c-0.9,0-0.9,0.9-0.9,0.9v8.4h-1.5v-3.3c0-0.9-0.9-0.9-0.9-0.9h-2.2c-0.9,0-0.9,0.9-0.9,0.9v3.3H20v-5.7c0-0.9-0.9-0.9-0.9-0.9h-2.2
		C16,28.2,16,29.1,16,29.1 M36.4,16.6c0-1.1-0.9-2.1-2.1-2.1s-2.1,0.9-2.1,2.1c0,0.3,0.1,0.6,0.2,0.8l-2.3,1.7
		c-0.4-0.3-0.8-0.4-1.3-0.4c-1.1,0-2.1,0.9-2.1,2.1c0,0.4,0.1,0.7,0.3,1l-2.5,2.5c-0.3-0.2-0.7-0.3-1.1-0.3c-0.7,0-1.3,0.3-1.7,0.9
		l-1.6-1c0-0.1,0-0.3,0-0.4c0-1.1-0.9-2.1-2.1-2.1c-1.1,0-2.1,0.9-2.1,2.1c0,1.2,0.9,2.1,2.1,2.1c0.6,0,1.2-0.3,1.6-0.8l1.6,1
		c0,0.1,0,0.2,0,0.3c0,1.2,0.9,2.1,2.1,2.1c1.1,0,2.1-0.9,2.1-2.1c0-0.4-0.1-0.8-0.3-1.1l2.5-2.5c0.3,0.2,0.7,0.3,1.1,0.3
		c1.1,0,2.1-0.9,2.1-2.1c0-0.3-0.1-0.6-0.2-0.9l2.3-1.7c0.4,0.3,0.8,0.5,1.3,0.5C35.5,18.7,36.4,17.8,36.4,16.6 M41.2,33
		c-0.1,0.2-0.2,0.5-0.3,0.7c-0.1,0.2-0.2,0.4-0.3,0.6c-0.1,0.2-0.3,0.5-0.4,0.7c-0.1,0.1-0.2,0.3-0.3,0.4c-0.2,0.4-0.5,0.7-0.8,1
		c-0.1,0.1-0.2,0.2-0.3,0.4c-0.2,0.2-0.4,0.5-0.6,0.7c-0.1,0.1-0.2,0.2-0.3,0.3c-0.3,0.2-0.5,0.5-0.8,0.7c-0.1,0.1-0.1,0.1-0.2,0.2
		c-0.4,0.3-0.7,0.6-1.1,0.9c0,0-0.1,0-0.1,0.1c-0.4,0.2-0.7,0.5-1.1,0.7c-0.1,0-0.2,0.1-0.3,0.1c-0.4,0.2-0.8,0.4-1.2,0.6
		c0,0-0.1,0-0.2,0.1C32,41.5,31,41.8,30.1,42c-0.1,0-0.2,0-0.3,0.1c-0.4,0.1-0.8,0.1-1.2,0.2c-0.1,0-0.2,0-0.3,0
		c-0.5,0-1,0.1-1.5,0.1c-0.5,0-1,0-1.5-0.1c-0.1,0-0.2,0-0.3,0c-0.4,0-0.8-0.1-1.2-0.2c-0.1,0-0.2,0-0.3-0.1c-1-0.2-1.9-0.5-2.8-0.9
		c-0.1,0-0.1,0-0.2-0.1c-0.4-0.2-0.8-0.4-1.2-0.6c-0.1,0-0.2-0.1-0.3-0.1c-0.4-0.2-0.7-0.4-1.1-0.7c0,0-0.1,0-0.1-0.1
		c-0.4-0.3-0.8-0.6-1.1-0.9c-0.1-0.1-0.2-0.1-0.2-0.2c-0.3-0.2-0.5-0.5-0.8-0.7c-0.1-0.1-0.2-0.2-0.3-0.3c-0.2-0.2-0.4-0.5-0.6-0.7
		c-0.1-0.1-0.2-0.2-0.3-0.4c-0.3-0.3-0.5-0.7-0.8-1c-0.1-0.1-0.2-0.3-0.3-0.4c-0.2-0.2-0.3-0.5-0.4-0.7c-0.1-0.2-0.2-0.4-0.3-0.6
		c-0.1-0.2-0.2-0.5-0.3-0.7c-0.1-0.2-0.2-0.4-0.2-0.5c-0.8-1.9-1.2-3.9-1.2-6c0-2.2,0.4-4.2,1.2-6.1c0-0.1,0.1-0.2,0.2-0.3
		c0.1-0.3,0.3-0.6,0.5-0.9c0.1-0.1,0.1-0.3,0.2-0.4c0.2-0.3,0.4-0.6,0.6-0.9c0.1-0.1,0.1-0.2,0.2-0.3c0.3-0.4,0.5-0.8,0.8-1.1
		c0.1-0.1,0.1-0.1,0.2-0.2c0.2-0.3,0.5-0.6,0.8-0.8c0.1-0.1,0.2-0.2,0.3-0.3c0.3-0.3,0.6-0.6,0.9-0.8c0,0,0.1-0.1,0.1-0.1
		c0.4-0.3,0.8-0.6,1.2-0.9c0,0,0,0,0,0c0.4-0.3,0.8-0.5,1.2-0.7c0.1,0,0.1-0.1,0.2-0.1c0.4-0.2,0.8-0.4,1.2-0.6c0,0,0.1,0,0.1-0.1
		c0.9-0.4,1.9-0.7,2.8-0.9c0.1,0,0.2,0,0.3-0.1c0.4-0.1,0.8-0.1,1.2-0.2c0.1,0,0.2,0,0.3,0c0.5,0,1-0.1,1.5-0.1s1,0,1.5,0.1
		c0.1,0,0.2,0,0.3,0c0.4,0,0.8,0.1,1.2,0.2c0.1,0,0.2,0,0.3,0.1c1,0.2,1.9,0.5,2.8,0.9c0,0,0.1,0,0.1,0.1c0.4,0.2,0.8,0.4,1.2,0.6
		c0.1,0,0.1,0.1,0.2,0.1c0.4,0.2,0.8,0.5,1.2,0.7c0,0,0,0,0,0c0.4,0.3,0.8,0.6,1.2,0.9c0,0,0.1,0.1,0.1,0.1c0.3,0.3,0.6,0.5,0.9,0.8
		c0.1,0.1,0.2,0.2,0.3,0.3c0.3,0.3,0.5,0.6,0.8,0.8c0.1,0.1,0.1,0.1,0.2,0.2c0.3,0.4,0.6,0.7,0.8,1.1c0.1,0.1,0.1,0.2,0.2,0.3
		c0.2,0.3,0.4,0.6,0.6,0.9c0.1,0.1,0.1,0.3,0.2,0.4c0.2,0.3,0.3,0.6,0.5,0.9c0,0.1,0.1,0.2,0.2,0.3c0.8,1.9,1.2,3.9,1.2,6.1
		c0,2.1-0.4,4.2-1.2,6C41.4,32.6,41.3,32.8,41.2,33 M51.2,50.2c0-0.6-0.2-1.1-0.5-1.6v0l-0.1-0.1c-0.1-0.1-0.2-0.2-0.3-0.3L48,45.8
		l0,0l-2.6-2.7l-3.4-3.5l0,0l-0.8-0.9c-0.1-0.1-0.2-0.2-0.3-0.3l0,0c2.7-3.2,4.4-7.4,4.4-12c0-6.7-3.5-12.5-8.8-15.8
		c-0.1-0.1-0.2-0.1-0.3-0.2c-0.3-0.2-0.6-0.4-1-0.6c-0.2-0.1-0.5-0.2-0.7-0.3c-0.3-0.1-0.6-0.3-0.9-0.4c-0.4-0.2-0.9-0.3-1.3-0.5
		c-0.2-0.1-0.3-0.1-0.5-0.1c-0.4-0.1-0.8-0.2-1.2-0.3c-0.2,0-0.3-0.1-0.5-0.1c-0.4-0.1-0.9-0.1-1.3-0.2c-0.1,0-0.3,0-0.4-0.1
		c-0.6-0.1-1.2-0.1-1.7-0.1c0,0,0,0,0,0c0,0,0,0,0,0c-0.6,0-1.2,0-1.7,0.1c-0.1,0-0.3,0-0.4,0.1c-0.4,0.1-0.9,0.1-1.3,0.2
		c-0.2,0-0.3,0.1-0.5,0.1c-0.4,0.1-0.8,0.2-1.2,0.3c-0.2,0-0.3,0.1-0.5,0.1c-0.4,0.1-0.9,0.3-1.3,0.5c-0.3,0.1-0.6,0.3-0.9,0.4
		c-0.2,0.1-0.5,0.2-0.7,0.3c-0.3,0.2-0.7,0.4-1,0.6c-0.1,0.1-0.2,0.1-0.3,0.2c-5.3,3.3-8.8,9.1-8.8,15.8c0,6.6,3.5,12.5,8.7,15.7
		c0.1,0,0.2,0.1,0.2,0.1c0.3,0.2,0.7,0.4,1,0.6c0.2,0.1,0.4,0.2,0.6,0.3c0.4,0.2,0.7,0.3,1.1,0.5c0.4,0.2,0.8,0.3,1.2,0.4
		c0.2,0.1,0.3,0.1,0.5,0.2c0.4,0.1,0.8,0.2,1.2,0.3c0.2,0,0.3,0.1,0.5,0.1c0.4,0.1,0.8,0.1,1.3,0.2c0.1,0,0.3,0,0.4,0.1
		c0.6,0.1,1.2,0.1,1.7,0.1c0,0,0,0,0,0s0,0,0,0c0.6,0,1.2,0,1.7-0.1c0.1,0,0.3,0,0.4-0.1c0.4-0.1,0.9-0.1,1.3-0.2
		c0.2,0,0.3-0.1,0.5-0.1c0.4-0.1,0.8-0.2,1.2-0.3c0.2-0.1,0.4-0.1,0.5-0.2c0.4-0.1,0.8-0.3,1.2-0.4c0.4-0.2,0.7-0.3,1.1-0.5
		c0.2-0.1,0.4-0.2,0.6-0.3c0.4-0.2,0.7-0.4,1-0.6c0.1,0,0.2-0.1,0.2-0.1c0.1-0.1,0.2-0.1,0.2-0.2c0.1,0.2,0.2,0.4,0.4,0.6l0.9,0.9
		l6,6.2l2.3,2.3c0.5,0.5,1.3,0.9,2.1,0.9C49.9,52.9,51.2,51.7,51.2,50.2"/>
</g>
</svg>
