<?xml version="1.0" encoding="utf-8"?>
<!-- Generator: Adobe Illustrator 28.0.0, SVG Export Plug-In . SVG Version: 6.00 Build 0)  -->
<svg version="1.1" id="Ebene_1" xmlns="http://www.w3.org/2000/svg" xmlns:xlink="http://www.w3.org/1999/xlink" x="0px" y="0px"
	 viewBox="0 0 53.9 53.9" style="enable-background:new 0 0 53.9 53.9;" xml:space="preserve">
<style type="text/css">
	.st0{clip-path:url(#SVGID_00000085932632846846095000000009256907624045700249_);fill:#00ABC4;}
	.st1{clip-path:url(#SVGID_00000085932632846846095000000009256907624045700249_);fill:#FFFFFF;}
</style>
<g>
	<defs>
		<rect id="SVGID_1_" x="1.3" y="1.4" width="51.3" height="51.2"/>
	</defs>
	<clipPath id="SVGID_00000085948759399162294210000016364752996212676498_">
		<use xlink:href="#SVGID_1_"  style="overflow:visible;"/>
	</clipPath>
	<path style="clip-path:url(#SVGID_00000085948759399162294210000016364752996212676498_);fill:#00ABC4;" d="M9.4,1.4
		C5,1.4,1.4,5,1.4,9.4v35c0,4.5,3.6,8.1,8.1,8.1h35c4.5,0,8.1-3.6,8.1-8.1v-35c0-4.5-3.6-8.1-8.1-8.1H9.4z"/>
	<path style="clip-path:url(#SVGID_00000085948759399162294210000016364752996212676498_);fill:#FFFFFF;" d="M28.9,29.1
		c0-0.9,0.1-1.8,0.3-2.7h-5.6c0,0-0.8,0-1.1,0.1C22.1,26.6,22,27,22,27l-0.6,3L17.6,8.7c0,0-0.2-1.3-1.4-1.3c-1.1,0-1.4,1.2-1.4,1.2
		L8.7,38.1L5.5,27.7c0,0-0.1-0.5-0.4-0.9c-0.3-0.5-0.9-0.4-0.9-0.4l-3-0.1V29l1.8,0.1l4.6,14.5c0,0,0.5,1.1,1.4,1.1
		c1.1,0,1.4-1,1.4-1l5.5-26.3l3.7,20c0,0,0.3,1,1.2,1c1.2,0.1,1.5-1,1.5-1l1.7-8.1h4.6C28.9,29.2,28.9,29.1,28.9,29.1"/>
	<path style="clip-path:url(#SVGID_00000085948759399162294210000016364752996212676498_);fill:#FFFFFF;" d="M52.6,35.7l-0.7-0.4
		l-1.2-0.7l-1.8-1.1c0.8-1.9,1-4.1,0.5-6.3c-1.3-5.3-6.6-8.5-11.8-7.2c-5.2,1.3-8.4,6.6-7.1,11.9c1.3,5.3,6.6,8.5,11.8,7.2
		c1.8-0.4,3.3-1.4,4.5-2.6l4,2.5l1.8,1.1 M47,27.8c1,3.9-1.4,7.8-5.3,8.8c-3.9,1-7.9-1.4-8.8-5.3c-0.6-2.5,0.2-5.1,1.8-6.8
		c0.9-1,2.1-1.7,3.5-2.1c1.4-0.4,2.9-0.2,4.1,0.3C44.6,23.4,46.4,25.3,47,27.8"/>
</g>
</svg>
