<?xml version="1.0" encoding="utf-8"?>
<!-- Generator: Adobe Illustrator 28.0.0, SVG Export Plug-In . SVG Version: 6.00 Build 0)  -->
<svg version="1.1" id="Ebene_1" xmlns="http://www.w3.org/2000/svg" xmlns:xlink="http://www.w3.org/1999/xlink" x="0px" y="0px"
	 viewBox="0 0 53.9 53.9" style="enable-background:new 0 0 53.9 53.9;" xml:space="preserve">
<style type="text/css">
	.st0{clip-path:url(#SVGID_00000171711121389158436720000009606121638155030196_);fill:#1D91A6;}
	.st1{clip-path:url(#SVGID_00000171711121389158436720000009606121638155030196_);fill:#FFFFFF;}
</style>
<g>
	<defs>
		<rect id="SVGID_1_" x="1.4" y="1.4" width="51.2" height="51.2"/>
	</defs>
	<clipPath id="SVGID_00000109719095680326794020000008593589832730513057_">
		<use xlink:href="#SVGID_1_"  style="overflow:visible;"/>
	</clipPath>
	<path style="clip-path:url(#SVGID_00000109719095680326794020000008593589832730513057_);fill:#1D91A6;" d="M9.4,1.4
		C5,1.4,1.4,5,1.4,9.4v35c0,4.5,3.6,8.1,8.1,8.1h35c4.5,0,8.1-3.6,8.1-8.1v-35c0-4.5-3.6-8.1-8.1-8.1H9.4z"/>
	<path style="clip-path:url(#SVGID_00000109719095680326794020000008593589832730513057_);fill:#FFFFFF;" d="M36.8,24
		c0,6-4.9,10.9-10.9,10.9C19.9,34.9,15,30,15,24c0-3.9,2-7.3,5.1-9.2c1.7-1.1,3.6-1.8,5.8-1.8c2.2,0,4.2,0.7,5.9,1.9
		C34.8,16.9,36.8,20.2,36.8,24 M45.4,42.1c0-0.6-0.2-1.1-0.5-1.5v0l-0.1-0.1c-0.1-0.1-0.2-0.2-0.3-0.3l-2.2-2.3l0,0l-2.6-2.7
		l-2.2-2.3c1.9-2.5,3-5.6,3-9c0-8.2-6.5-14.8-14.6-14.8s-14.6,6.6-14.6,14.8s6.5,14.8,14.6,14.8c2.7,0,5.3-0.8,7.5-2.1l4.9,5
		l2.2,2.3c0.5,0.5,1.2,0.8,2,0.8C44.1,44.8,45.4,43.5,45.4,42.1"/>
</g>
</svg>
