<?xml version="1.0" encoding="utf-8"?>
<!-- Generator: Adobe Illustrator 28.0.0, SVG Export Plug-In . SVG Version: 6.00 Build 0)  -->
<svg version="1.1" id="Ebene_1" xmlns="http://www.w3.org/2000/svg" xmlns:xlink="http://www.w3.org/1999/xlink" x="0px" y="0px"
	 viewBox="0 0 53.9 53.9" style="enable-background:new 0 0 53.9 53.9;" xml:space="preserve">
<style type="text/css">
	.st0{clip-path:url(#SVGID_00000026128555159622108660000011606625661324793257_);fill:#1D91A6;}
	.st1{clip-path:url(#SVGID_00000026128555159622108660000011606625661324793257_);fill:#FFFFFF;}
</style>
<g>
	<defs>
		<rect id="SVGID_1_" x="1.4" y="1.4" width="51.2" height="51.2"/>
	</defs>
	<clipPath id="SVGID_00000152247853506203284720000014831315671496188069_">
		<use xlink:href="#SVGID_1_"  style="overflow:visible;"/>
	</clipPath>
	<path style="clip-path:url(#SVGID_00000152247853506203284720000014831315671496188069_);fill:#1D91A6;" d="M9.4,1.4
		C5,1.4,1.4,5,1.4,9.4v35c0,4.5,3.6,8.1,8.1,8.1h35c4.5,0,8.1-3.6,8.1-8.1v-35c0-4.5-3.6-8.1-8.1-8.1H9.4z"/>
	<path style="clip-path:url(#SVGID_00000152247853506203284720000014831315671496188069_);fill:#FFFFFF;" d="M33,28.5h-4.6
		c-0.3,0.1-0.6,0.3-0.6,0.9v4.8h-5.8v-3.3c0,0,0-0.4-0.4-0.5h-3.2v-5.1h3.9c0,0,0.8,0,0.8-0.8v-4.2h5.7v2.6c0,0,0,0.6,0.6,0.6H33
		V28.5z M41.1,40.7V29.4c0,0,0-0.7-0.6-0.9h-6.2v-5H37c0,0,0.6,0,0.6-0.6v-7.5c0,0,0-0.4-0.4-0.6h-8c-0.2,0.1-0.4,0.2-0.4,0.6V19
		h-5.7v-3.6c0,0,0-0.5-0.5-0.7H13c-0.2,0.1-0.5,0.3-0.5,0.7v9c0,0,0,0.8,0.8,0.8h4v5.1h-2.9c-0.2,0.1-0.3,0.2-0.3,0.5v6.8
		c0,0,0,0.6,0.6,0.6h6.8c0,0,0.6,0,0.6-0.6v-2.3h5.8v5.4c0,0,0,1,1,1h11.3C40.1,41.6,41.1,41.6,41.1,40.7"/>
</g>
</svg>
