<?xml version="1.0" encoding="utf-8"?>
<!-- Generator: Adobe Illustrator 28.0.0, SVG Export Plug-In . SVG Version: 6.00 Build 0)  -->
<svg version="1.1" id="Ebene_1" xmlns="http://www.w3.org/2000/svg" xmlns:xlink="http://www.w3.org/1999/xlink" x="0px" y="0px"
	 viewBox="0 0 53.9 53.9" style="enable-background:new 0 0 53.9 53.9;" xml:space="preserve">
<style type="text/css">
	.st0{clip-path:url(#SVGID_00000018199934642176293560000007559980145122216118_);fill:#1D91A6;}
	.st1{clip-path:url(#SVGID_00000018199934642176293560000007559980145122216118_);fill:#FFFFFF;}
</style>
<g>
	<defs>
		<rect id="SVGID_1_" x="1.4" y="1.4" width="51.2" height="51.2"/>
	</defs>
	<clipPath id="SVGID_00000036214987412024243810000001156648624714721452_">
		<use xlink:href="#SVGID_1_"  style="overflow:visible;"/>
	</clipPath>
	<path style="clip-path:url(#SVGID_00000036214987412024243810000001156648624714721452_);fill:#1D91A6;" d="M9.4,1.4
		C5,1.4,1.4,5,1.4,9.4v35c0,4.5,3.6,8.1,8.1,8.1h35c4.5,0,8.1-3.6,8.1-8.1v-35c0-4.5-3.6-8.1-8.1-8.1H9.4z"/>
	<path style="clip-path:url(#SVGID_00000036214987412024243810000001156648624714721452_);fill:#FFFFFF;" d="M40.2,38.6H13.7V15.3
		h26.6V38.6z M43.4,39.6V14.3c0-1.1-0.9-2-2-2H12.7c-1.1,0-2,0.9-2,2v25.4c0,1.1,0.9,2,2,2h28.8C42.5,41.6,43.4,40.8,43.4,39.6"/>
	<path style="clip-path:url(#SVGID_00000036214987412024243810000001156648624714721452_);fill:#FFFFFF;" d="M13,27.9h5.1
		c0,0,0.3,0,0.4,0.2c0.1,0.2,0.4,0.7,0.4,0.7l2.2,3.7l4.1-13.9c0,0,0.2-0.8,1-0.8c0.8,0,1,0.9,1,0.9l2.5,10.9l0.6-1.4
		c0,0,0.1-0.3,0.3-0.3c0.2,0,0.7,0,0.7,0h11.6v1.9H31.7l-1.1,3.6c0,0-0.2,0.7-1,0.7c-0.7,0-0.8-0.7-0.8-0.7l-2.5-10.7l-3.7,12.6
		c0,0-0.2,0.7-0.9,0.7c-0.6,0-1-0.7-1-0.7l-3.1-5.5H13V27.9z"/>
</g>
</svg>
