<?xml version="1.0" encoding="utf-8"?>
<!-- Generator: Adobe Illustrator 28.0.0, SVG Export Plug-In . SVG Version: 6.00 Build 0)  -->
<svg version="1.1" id="Ebene_1" xmlns="http://www.w3.org/2000/svg" xmlns:xlink="http://www.w3.org/1999/xlink" x="0px" y="0px"
	 viewBox="0 0 53.9 53.9" style="enable-background:new 0 0 53.9 53.9;" xml:space="preserve">
<style type="text/css">
	.st0{clip-path:url(#SVGID_00000146497690204695151730000015921814333743331469_);fill:#00ABC4;}
	.st1{clip-path:url(#SVGID_00000146497690204695151730000015921814333743331469_);fill:#FFFFFF;}
</style>
<g>
	<defs>
		<rect id="SVGID_1_" x="1.3" y="1.3" width="51.2" height="51.2"/>
	</defs>
	<clipPath id="SVGID_00000057851730416510547550000013626907793684735113_">
		<use xlink:href="#SVGID_1_"  style="overflow:visible;"/>
	</clipPath>
	<path style="clip-path:url(#SVGID_00000057851730416510547550000013626907793684735113_);fill:#00ABC4;" d="M9.4,1.3
		C5,1.3,1.3,5,1.3,9.4v35c0,4.5,3.6,8.1,8.1,8.1h35c4.5,0,8.1-3.6,8.1-8.1v-35c0-4.5-3.6-8.1-8.1-8.1H9.4z"/>
	<path style="clip-path:url(#SVGID_00000057851730416510547550000013626907793684735113_);fill:#FFFFFF;" d="M19.4,23.4
		c-0.1,0-0.2,0-0.3,0v0l0,0c0,0,0,0,0,0l-3.6,1.8l0,0c-0.3,0.1-0.4,0.5-0.2,0.7c0.1,0.3,0.4,0.4,0.7,0.3l0.1,0l2.1-1
		c-0.2,0.7-0.3,1.5-0.3,2.3c0,3.4,1.8,6.3,4.4,8c0,0,0.1,0,0.1,0.1c0.2,0.1,0.3,0.2,0.5,0.3c0.1,0.1,0.2,0.1,0.3,0.2
		c0.2,0.1,0.4,0.2,0.6,0.2c0.2,0.1,0.4,0.2,0.6,0.2c0.1,0,0.2,0.1,0.3,0.1c0.2,0.1,0.4,0.1,0.6,0.2c0.1,0,0.2,0,0.3,0.1
		c0.2,0,0.4,0.1,0.7,0.1c0.1,0,0.1,0,0.2,0c0.2,0,0.4,0,0.7,0c0-0.4-0.1-0.9-0.1-1.4c-0.1,0-0.3,0-0.4,0c-0.1,0-0.1,0-0.2,0
		c-0.2,0-0.4-0.1-0.6-0.1c0,0-0.1,0-0.1,0c-0.5-0.1-1-0.3-1.4-0.4c0,0-0.1,0-0.1,0c-0.2-0.1-0.4-0.2-0.6-0.3c0,0-0.1,0-0.1-0.1
		c-0.2-0.1-0.4-0.2-0.6-0.3c0,0,0,0-0.1,0c-0.2-0.1-0.4-0.3-0.6-0.4c0,0-0.1-0.1-0.1-0.1c-0.1-0.1-0.3-0.2-0.4-0.4
		c-0.1-0.1-0.1-0.1-0.2-0.2c-0.1-0.1-0.2-0.2-0.3-0.3c-0.1-0.1-0.1-0.1-0.2-0.2c-0.1-0.2-0.3-0.3-0.4-0.5c-0.1-0.1-0.1-0.2-0.1-0.2
		c-0.1-0.1-0.2-0.2-0.2-0.4c-0.1-0.1-0.1-0.2-0.2-0.3c-0.1-0.1-0.1-0.2-0.2-0.4c0-0.1-0.1-0.2-0.1-0.3c-0.4-0.9-0.6-2-0.6-3.1
		c0-0.6,0.1-1.3,0.2-1.9l1.1,2.2l0,0c0.1,0.3,0.5,0.4,0.7,0.2c0.3-0.1,0.4-0.4,0.3-0.7l0-0.1l-1.7-3.6l0,0
		C19.7,23.5,19.6,23.4,19.4,23.4 M35.1,22.5L35.1,22.5L35.1,22.5C35.1,22.5,35.1,22.5,35.1,22.5l-0.1-4l0-0.1c0-0.3-0.3-0.5-0.6-0.5
		c-0.3,0-0.5,0.2-0.5,0.5l0,0.1l0,2.2c-0.5-0.5-1.1-1-1.7-1.4c0,0-0.1-0.1-0.1-0.1c-0.2-0.1-0.3-0.2-0.5-0.3
		c-0.1-0.1-0.2-0.1-0.4-0.2c-0.2-0.1-0.3-0.1-0.5-0.2c-0.2-0.1-0.4-0.2-0.7-0.2c-0.1,0-0.2,0-0.2-0.1c-0.2-0.1-0.4-0.1-0.6-0.2
		c-0.1,0-0.2,0-0.3-0.1c-0.2,0-0.4-0.1-0.7-0.1c-0.1,0-0.1,0-0.2,0c-0.3,0-0.6,0-0.9,0c0,0,0,0,0,0c0,0,0,0,0,0c-0.3,0-0.6,0-0.9,0
		c-0.1,0-0.1,0-0.2,0c-0.2,0-0.4,0.1-0.7,0.1c-0.1,0-0.2,0-0.3,0.1c-0.2,0-0.4,0.1-0.6,0.2c-0.1,0-0.2,0-0.2,0.1
		c-0.2,0.1-0.4,0.2-0.7,0.2c-0.2,0.1-0.3,0.1-0.5,0.2C23.2,18.9,23,19,22.9,19c-0.2,0.1-0.3,0.2-0.5,0.3c-0.1,0-0.1,0.1-0.1,0.1
		c-1.2,0.7-2.2,1.8-3,2.9l1.3,0.5c0.1-0.2,0.3-0.4,0.4-0.5c0,0,0.1-0.1,0.1-0.1c0.1-0.1,0.3-0.3,0.4-0.4c0,0,0.1-0.1,0.1-0.1
		c0.1-0.1,0.3-0.3,0.5-0.4c0,0,0,0,0.1-0.1c0.2-0.2,0.4-0.3,0.6-0.4c0,0,0,0,0,0c0.2-0.1,0.4-0.3,0.6-0.4c0,0,0.1,0,0.1-0.1
		c0.2-0.1,0.4-0.2,0.6-0.3c0,0,0,0,0.1,0c0.5-0.2,0.9-0.3,1.4-0.4c0,0,0.1,0,0.1,0c0.2,0,0.4-0.1,0.6-0.1c0.1,0,0.1,0,0.2,0
		c0.3,0,0.5,0,0.8,0c0.3,0,0.5,0,0.8,0c0.1,0,0.1,0,0.2,0c0.2,0,0.4,0.1,0.6,0.1c0,0,0.1,0,0.1,0c0.5,0.1,1,0.3,1.4,0.4
		c0,0,0,0,0.1,0c0.2,0.1,0.4,0.2,0.6,0.3c0,0,0.1,0,0.1,0.1c0.2,0.1,0.4,0.2,0.6,0.4c0,0,0,0,0,0c0.2,0.1,0.4,0.3,0.6,0.4
		c0,0,0,0,0.1,0.1c0.2,0.1,0.3,0.3,0.5,0.4c0,0,0.1,0.1,0.1,0.1c0,0,0.1,0.1,0.1,0.1l-2.6,0l-0.1,0c-0.3,0-0.5,0.3-0.5,0.6
		c0,0.3,0.2,0.5,0.5,0.5l0.1,0l4-0.1v0c0.1,0,0.2-0.1,0.3-0.1C35,22.8,35.1,22.6,35.1,22.5 M36.7,27.4c0-1.4-0.3-2.7-0.9-3.9
		c-0.4,0.2-0.8,0.5-1.1,0.7c0,0,0,0.1,0,0.1c0.4,1,0.6,2,0.6,3.1c0,1.1-0.2,2.1-0.6,3.1c0,0.1-0.1,0.2-0.1,0.3
		c-0.1,0.1-0.1,0.2-0.2,0.4c0,0.1-0.1,0.2-0.2,0.3c-0.1,0.1-0.1,0.2-0.2,0.4c0,0.1-0.1,0.2-0.1,0.2c-0.1,0.2-0.3,0.4-0.4,0.5
		c-0.1,0.1-0.1,0.1-0.2,0.2c-0.1,0.1-0.2,0.2-0.3,0.3c-0.1,0.1-0.1,0.1-0.2,0.2c-0.1,0.1-0.3,0.2-0.4,0.4c0,0-0.1,0.1-0.1,0.1
		c-0.2,0.2-0.4,0.3-0.6,0.4c0,0,0,0-0.1,0c-0.2,0.1-0.4,0.2-0.6,0.3c0,0-0.1,0-0.1,0.1c-0.2,0.1-0.4,0.2-0.6,0.3c0,0,0,0-0.1,0
		c-0.3,0.1-0.7,0.2-1,0.3l1.1-2.5l0,0c0.1-0.3,0-0.6-0.3-0.7c-0.3-0.1-0.6,0-0.7,0.3l0,0.1l-1.6,3.7l0,0c0,0.1,0,0.2,0,0.3
		c0,0.1,0.1,0.2,0.2,0.2l0,0c0,0,0,0,0,0l3.7,1.5l0,0c0.3,0.1,0.6,0,0.7-0.3c0.1-0.3,0-0.6-0.3-0.7l-0.1,0l-1.7-0.7
		c0.1,0,0.2-0.1,0.3-0.1c0.2-0.1,0.4-0.2,0.6-0.2c0.1,0,0.2-0.1,0.3-0.2c0.2-0.1,0.4-0.2,0.5-0.3c0,0,0.1,0,0.1-0.1
		C34.9,33.7,36.7,30.8,36.7,27.4 M40.4,27.4c0,7-5.9,12.7-13.1,12.7c-7.2,0-13.1-5.7-13.1-12.7S20,14.7,27.3,14.7
		C34.5,14.7,40.4,20.4,40.4,27.4 M42.7,25.9l3.6-3.4L44,17l-4.8,0.5l-2-1.9l0.2-5.1L32,8.3L28.6,12h-1.4h-1.4l-3.4-3.8l-5.5,2.3
		l0.2,5.1l-2,1.9L10.5,17l-2.2,5.6l3.6,3.4v3l-3.6,3.2l2.2,5.3l4.8-0.1l2,2l-0.2,5.1l5.6,2.1l3.2-3.6h1.4h1.4l3.2,3.6l5.6-2.1
		l-0.2-5.1l2-2l4.8,0.1l2.2-5.3l-3.6-3.2V25.9z"/>
</g>
</svg>
