<?xml version="1.0" encoding="utf-8"?>
<!-- Generator: Adobe Illustrator 28.0.0, SVG Export Plug-In . SVG Version: 6.00 Build 0)  -->
<svg version="1.1" id="Ebene_1" xmlns="http://www.w3.org/2000/svg" xmlns:xlink="http://www.w3.org/1999/xlink" x="0px" y="0px"
	 viewBox="0 0 53.9 53.9" style="enable-background:new 0 0 53.9 53.9;" xml:space="preserve">
<style type="text/css">
	.st0{clip-path:url(#SVGID_00000166676994817009755750000008896564195522725544_);fill:#1D91A6;}
	.st1{clip-path:url(#SVGID_00000166676994817009755750000008896564195522725544_);fill:#FFFFFF;}
</style>
<g>
	<defs>
		<rect id="SVGID_1_" x="1.4" y="1.4" width="51.2" height="51.2"/>
	</defs>
	<clipPath id="SVGID_00000134245005104861744590000012784301489971152785_">
		<use xlink:href="#SVGID_1_"  style="overflow:visible;"/>
	</clipPath>
	<path style="clip-path:url(#SVGID_00000134245005104861744590000012784301489971152785_);fill:#1D91A6;" d="M9.4,1.4
		C5,1.4,1.4,5,1.4,9.4v35c0,4.5,3.6,8.1,8.1,8.1h35c4.5,0,8.1-3.6,8.1-8.1v-35c0-4.5-3.6-8.1-8.1-8.1H9.4z"/>
	<path style="clip-path:url(#SVGID_00000134245005104861744590000012784301489971152785_);fill:#FFFFFF;" d="M18.4,41.4
		c3.5,0,6.3-2.7,6.3-6c0-3.3-2.8-6-6.3-6s-6.3,2.7-6.3,6C12.1,38.8,15,41.4,18.4,41.4"/>
	<path style="clip-path:url(#SVGID_00000134245005104861744590000012784301489971152785_);fill:#FFFFFF;" d="M41.3,19.1
		c0-3.5-3-6.4-6.7-6.4c-1.9,0-3.6,0.8-4.8,2L15.5,28.3l0,0c1.2-1,2.8-1.5,4.5-1.5c3.9,0,7.1,3.1,7.1,6.8c0,1.3-0.4,2.6-1.1,3.7l0,0
		l13-13.5c0.3-0.2,0.5-0.5,0.7-0.7l0.3-0.3v0C40.8,21.7,41.3,20.4,41.3,19.1"/>
</g>
</svg>
