<?xml version="1.0" encoding="utf-8"?>
<!-- Generator: Adobe Illustrator 28.0.0, SVG Export Plug-In . SVG Version: 6.00 Build 0)  -->
<svg version="1.1" id="Ebene_1" xmlns="http://www.w3.org/2000/svg" xmlns:xlink="http://www.w3.org/1999/xlink" x="0px" y="0px"
	 viewBox="0 0 53.9 53.9" style="enable-background:new 0 0 53.9 53.9;" xml:space="preserve">
<style type="text/css">
	.st0{clip-path:url(#SVGID_00000060016310147582764460000017726930499303689095_);fill:#00ABC4;}
	.st1{clip-path:url(#SVGID_00000060016310147582764460000017726930499303689095_);fill:#FFFFFF;}
</style>
<g>
	<defs>
		<rect id="SVGID_1_" x="1.1" y="1.3" width="51.2" height="51.2"/>
	</defs>
	<clipPath id="SVGID_00000176725554857403614000000009904648628733291917_">
		<use xlink:href="#SVGID_1_"  style="overflow:visible;"/>
	</clipPath>
	<path style="clip-path:url(#SVGID_00000176725554857403614000000009904648628733291917_);fill:#00ABC4;" d="M9.1,1.3
		c-4.5,0-8.1,3.6-8.1,8.1v35c0,4.5,3.6,8.1,8.1,8.1h35c4.5,0,8.1-3.6,8.1-8.1v-35c0-4.5-3.6-8.1-8.1-8.1H9.1z"/>
	<path style="clip-path:url(#SVGID_00000176725554857403614000000009904648628733291917_);fill:#FFFFFF;" d="M11.4,18.1h6.3
		c-0.7,0.5-1.1,1.3-1.1,2.1c0,0.1,0,0.2,0,0.3l-5.2,2.1V18.1z M11.4,41.4V24.2l5.7-2.3c0.5,0.6,1.3,1,2.1,1c0,0,0.1,0,0.1,0l2.6,7.4
		c-1,0.4-1.6,1.3-1.6,2.4c0,0.5,0.2,1,0.4,1.4l-6.6,7.3H11.4z M37.9,41.4H27.2l-2.4-6.8c0.4-0.3,0.6-0.8,0.8-1.3h12.3V41.4z
		 M25.8,41.4H16l5.7-6.5c0.4,0.2,0.8,0.4,1.3,0.4c0.2,0,0.4,0,0.6-0.1L25.8,41.4z M20.8,18.1h6.6v-3h-17c-1.1,0-2,0.9-2,2v25.4
		c0,1.1,0.9,2,2,2h28.8c1.1,0,2-0.9,2-2V28.4h-3.2v3.7H25.7c-0.3-1.1-1.2-1.9-2.4-2l-2.6-7.6c0.8-0.5,1.3-1.3,1.3-2.2
		C22,19.4,21.5,18.6,20.8,18.1 M27,29.3c0.9-0.3,3-1,3-1l-2.7-2.6l-1,2.9c0,0-0.2,0.3,0.1,0.6C26.6,29.5,26.8,29.4,27,29.3 M44,16
		l-5-4.8l-9.8,10.2c0,0-0.4,0.4-0.8,1.3c-0.3,0.7-0.5,1.7-0.5,1.7l3.3,3.2c0,0,1.3-0.3,1.8-0.5c0.7-0.2,1.3-0.9,1.3-0.9L44,16z
		 M48,9.7l-2.8-2.7c-1.1-1-2.1,0-2.1,0l-2.9,3l5,4.8l2.9-3C49,10.8,48,9.7,48,9.7"/>
</g>
</svg>
