<?xml version="1.0" encoding="utf-8"?>
<!-- Generator: Adobe Illustrator 28.0.0, SVG Export Plug-In . SVG Version: 6.00 Build 0)  -->
<svg version="1.1" id="Ebene_1" xmlns="http://www.w3.org/2000/svg" xmlns:xlink="http://www.w3.org/1999/xlink" x="0px" y="0px"
	 viewBox="0 0 53.9 53.9" style="enable-background:new 0 0 53.9 53.9;" xml:space="preserve">
<style type="text/css">
	.st0{clip-path:url(#SVGID_00000008863763220274146390000008252219354484161677_);fill:#1D91A6;}
	.st1{clip-path:url(#SVGID_00000008863763220274146390000008252219354484161677_);fill:#FFFFFF;}
</style>
<g>
	<defs>
		<rect id="SVGID_1_" x="1.4" y="1.4" width="51.2" height="51.2"/>
	</defs>
	<clipPath id="SVGID_00000159468780757654621330000008796030624143492246_">
		<use xlink:href="#SVGID_1_"  style="overflow:visible;"/>
	</clipPath>
	<path style="clip-path:url(#SVGID_00000159468780757654621330000008796030624143492246_);fill:#1D91A6;" d="M9.4,1.4
		C5,1.4,1.4,5,1.4,9.4v35c0,4.5,3.6,8.1,8.1,8.1h35c4.5,0,8.1-3.6,8.1-8.1v-35c0-4.5-3.6-8.1-8.1-8.1H9.4z"/>
	<path style="clip-path:url(#SVGID_00000159468780757654621330000008796030624143492246_);fill:#FFFFFF;" d="M41.5,25
		c-0.1,8-6.6,14.4-14.6,14.3c-8-0.1-14.4-6.6-14.3-14.6c0.1-8,6.6-14.4,14.6-14.3C35.2,10.5,41.6,17,41.5,25 M44,25.1
		c0.1-9.3-7.4-16.9-16.6-16.9c-9.3-0.1-16.9,7.4-16.9,16.6c-0.1,9.3,7.4,16.9,16.6,16.9C36.3,41.8,43.9,34.4,44,25.1"/>
	<path style="clip-path:url(#SVGID_00000159468780757654621330000008796030624143492246_);fill:#FFFFFF;" d="M20.6,41.6V43
		c0,0,0,2.7,2.7,2.7h7.8c0,0,2.7,0,2.7-2.7v-1.4c-2,0.8-4.3,1.3-6.6,1.3S22.7,42.4,20.6,41.6"/>
	<path style="clip-path:url(#SVGID_00000159468780757654621330000008796030624143492246_);fill:#FFFFFF;" d="M37.6,29.7v-4
		c0,0,0-1.5-1.2-1.5h-6v7h6C36.4,31.2,37.6,31.2,37.6,29.7"/>
	<path style="clip-path:url(#SVGID_00000159468780757654621330000008796030624143492246_);fill:#FFFFFF;" d="M29.8,24.2H18.1
		c0,0-1.3,0-1.3,1.5v4c0,0,0,1.5,1.3,1.5h11.6V24.2z"/>
	<path style="clip-path:url(#SVGID_00000159468780757654621330000008796030624143492246_);fill:#FFFFFF;" d="M18.6,22.1
		c0.9,0,1.7-0.8,1.7-1.7c0-0.9-0.8-1.7-1.7-1.7s-1.7,0.8-1.7,1.7C16.9,21.3,17.6,22.1,18.6,22.1"/>
	<path style="clip-path:url(#SVGID_00000159468780757654621330000008796030624143492246_);fill:#FFFFFF;" d="M27.2,22.1
		c0.9,0,1.7-0.8,1.7-1.7c0-0.9-0.8-1.7-1.7-1.7s-1.7,0.8-1.7,1.7C25.5,21.3,26.3,22.1,27.2,22.1"/>
	<path style="clip-path:url(#SVGID_00000159468780757654621330000008796030624143492246_);fill:#FFFFFF;" d="M35.8,22.1
		c0.9,0,1.7-0.8,1.7-1.7c0-0.9-0.8-1.7-1.7-1.7s-1.7,0.8-1.7,1.7C34.1,21.3,34.9,22.1,35.8,22.1"/>
</g>
</svg>
