<?xml version="1.0" encoding="utf-8"?>
<!-- Generator: Adobe Illustrator 28.0.0, SVG Export Plug-In . SVG Version: 6.00 Build 0)  -->
<svg version="1.1" id="Ebene_1" xmlns="http://www.w3.org/2000/svg" xmlns:xlink="http://www.w3.org/1999/xlink" x="0px" y="0px"
	 viewBox="0 0 53.9 53.9" style="enable-background:new 0 0 53.9 53.9;" xml:space="preserve">
<style type="text/css">
	.st0{clip-path:url(#SVGID_00000121265144096831188590000004479360391750005922_);fill:#1D91A6;}
	.st1{clip-path:url(#SVGID_00000121265144096831188590000004479360391750005922_);fill:#FFFFFF;}
</style>
<g>
	<defs>
		<rect id="SVGID_1_" x="1.4" y="1.4" width="51.2" height="51.2"/>
	</defs>
	<clipPath id="SVGID_00000005957902312167840610000000904114111448394919_">
		<use xlink:href="#SVGID_1_"  style="overflow:visible;"/>
	</clipPath>
	<path style="clip-path:url(#SVGID_00000005957902312167840610000000904114111448394919_);fill:#1D91A6;" d="M9.4,1.4
		C5,1.4,1.4,5,1.4,9.4v35c0,4.5,3.6,8.1,8.1,8.1h35c4.5,0,8.1-3.6,8.1-8.1v-35c0-4.5-3.6-8.1-8.1-8.1H9.4z"/>
	<path style="clip-path:url(#SVGID_00000005957902312167840610000000904114111448394919_);fill:#FFFFFF;" d="M19.9,22.9
		c-0.1,0-0.2,0-0.3,0l0,0l0,0c0,0,0,0,0,0l-3.3,1.6l0,0c-0.2,0.1-0.3,0.4-0.2,0.7c0.1,0.3,0.4,0.4,0.7,0.3l0.1,0l2-1
		c-0.2,0.7-0.3,1.4-0.3,2.2c0,3.2,1.7,5.9,4.2,7.5c0,0,0.1,0,0.1,0.1c0.2,0.1,0.3,0.2,0.5,0.3c0.1,0,0.2,0.1,0.3,0.1
		c0.2,0.1,0.3,0.2,0.5,0.2c0.2,0.1,0.4,0.1,0.6,0.2c0.1,0,0.2,0,0.2,0.1c0.2,0.1,0.4,0.1,0.6,0.1c0.1,0,0.2,0,0.2,0.1
		c0.2,0,0.4,0.1,0.6,0.1c0.1,0,0.1,0,0.2,0c0.2,0,0.4,0,0.6,0c0-0.4-0.1-0.9-0.1-1.3c-0.1,0-0.3,0-0.4,0c-0.1,0-0.1,0-0.2,0
		c-0.2,0-0.4-0.1-0.6-0.1c0,0-0.1,0-0.1,0c-0.5-0.1-0.9-0.2-1.3-0.4c0,0,0,0-0.1,0c-0.2-0.1-0.4-0.2-0.5-0.3c0,0-0.1,0-0.1-0.1
		c-0.2-0.1-0.4-0.2-0.5-0.3c0,0,0,0-0.1,0c-0.2-0.1-0.4-0.3-0.5-0.4c0,0-0.1-0.1-0.1-0.1c-0.1-0.1-0.3-0.2-0.4-0.3
		c-0.1-0.1-0.1-0.1-0.2-0.2c-0.1-0.1-0.2-0.2-0.3-0.3c0-0.1-0.1-0.1-0.1-0.2c-0.1-0.2-0.3-0.3-0.4-0.5c0-0.1-0.1-0.1-0.1-0.2
		c-0.1-0.1-0.1-0.2-0.2-0.3c0-0.1-0.1-0.2-0.1-0.3c-0.1-0.1-0.1-0.2-0.2-0.3c0-0.1-0.1-0.2-0.1-0.3c-0.4-0.9-0.6-1.9-0.6-2.9
		c0-0.6,0.1-1.2,0.2-1.8l1,2l0,0c0.1,0.2,0.4,0.3,0.7,0.2c0.3-0.1,0.4-0.4,0.3-0.7l0-0.1l-1.6-3.4l0,0C20.1,23,20,22.9,19.9,22.9
		 M34.5,22.1L34.5,22.1L34.5,22.1C34.5,22.1,34.5,22.1,34.5,22.1l-0.1-3.8l0,0c0-0.3-0.2-0.5-0.5-0.5c-0.3,0-0.5,0.2-0.5,0.5l0,0.1
		l0,2.1c-0.5-0.5-1-0.9-1.6-1.3c0,0-0.1-0.1-0.1-0.1c-0.2-0.1-0.3-0.2-0.5-0.3c-0.1-0.1-0.2-0.1-0.3-0.2c-0.1-0.1-0.3-0.1-0.4-0.2
		c-0.2-0.1-0.4-0.2-0.6-0.2c-0.1,0-0.2,0-0.2-0.1c-0.2-0.1-0.4-0.1-0.6-0.1c-0.1,0-0.2,0-0.2,0c-0.2,0-0.4-0.1-0.6-0.1
		c-0.1,0-0.1,0-0.2,0c-0.3,0-0.5,0-0.8,0c0,0,0,0,0,0c0,0,0,0,0,0c-0.3,0-0.6,0-0.8,0c-0.1,0-0.1,0-0.2,0c-0.2,0-0.4,0.1-0.6,0.1
		c-0.1,0-0.2,0-0.2,0c-0.2,0-0.4,0.1-0.6,0.1c-0.1,0-0.2,0-0.2,0.1c-0.2,0.1-0.4,0.1-0.6,0.2c-0.1,0.1-0.3,0.1-0.4,0.2
		c-0.1,0.1-0.2,0.1-0.3,0.2c-0.2,0.1-0.3,0.2-0.5,0.3c0,0-0.1,0.1-0.1,0.1c-1.1,0.7-2.1,1.7-2.8,2.8l1.2,0.4
		c0.1-0.2,0.2-0.3,0.4-0.5c0,0,0.1-0.1,0.1-0.1c0.1-0.1,0.2-0.3,0.4-0.4c0,0,0.1-0.1,0.1-0.1c0.1-0.1,0.3-0.3,0.4-0.4
		c0,0,0,0,0.1-0.1c0.2-0.1,0.4-0.3,0.6-0.4c0,0,0,0,0,0c0.2-0.1,0.4-0.2,0.6-0.4c0,0,0.1,0,0.1-0.1c0.2-0.1,0.4-0.2,0.6-0.3
		c0,0,0,0,0.1,0c0.4-0.2,0.9-0.3,1.4-0.4c0,0,0.1,0,0.1,0c0.2,0,0.4-0.1,0.6-0.1c0.1,0,0.1,0,0.2,0c0.2,0,0.5,0,0.7,0
		c0.2,0,0.5,0,0.7,0c0.1,0,0.1,0,0.2,0c0.2,0,0.4,0.1,0.6,0.1c0,0,0.1,0,0.1,0c0.5,0.1,0.9,0.2,1.4,0.4c0,0,0,0,0.1,0
		c0.2,0.1,0.4,0.2,0.6,0.3c0,0,0.1,0,0.1,0.1c0.2,0.1,0.4,0.2,0.6,0.4c0,0,0,0,0,0c0.2,0.1,0.4,0.3,0.6,0.4c0,0,0,0,0.1,0.1
		c0.1,0.1,0.3,0.3,0.4,0.4c0,0,0.1,0.1,0.1,0.1c0,0,0.1,0.1,0.1,0.1l-2.4,0l0,0c-0.3,0-0.5,0.2-0.5,0.5c0,0.3,0.2,0.5,0.5,0.5l0.1,0
		l3.7-0.1v0c0.1,0,0.2,0,0.3-0.1C34.5,22.3,34.5,22.2,34.5,22.1 M36.1,26.7c0-1.3-0.3-2.5-0.8-3.6c-0.4,0.2-0.7,0.4-1.1,0.6
		c0,0,0,0.1,0,0.1c0.4,0.9,0.6,1.9,0.6,2.9c0,1-0.2,2-0.6,2.9c0,0.1-0.1,0.2-0.1,0.3C34.1,29.9,34,30,34,30.1c0,0.1-0.1,0.2-0.1,0.3
		c-0.1,0.1-0.1,0.2-0.2,0.3c0,0.1-0.1,0.1-0.1,0.2c-0.1,0.2-0.2,0.3-0.4,0.5c0,0.1-0.1,0.1-0.1,0.2c-0.1,0.1-0.2,0.2-0.3,0.3
		c-0.1,0.1-0.1,0.1-0.2,0.2c-0.1,0.1-0.2,0.2-0.4,0.3c0,0-0.1,0.1-0.1,0.1c-0.2,0.1-0.4,0.3-0.5,0.4c0,0,0,0-0.1,0
		c-0.2,0.1-0.3,0.2-0.5,0.3c0,0-0.1,0-0.1,0.1c-0.2,0.1-0.4,0.2-0.5,0.3c0,0,0,0-0.1,0c-0.3,0.1-0.6,0.2-0.9,0.3l1-2.3l0,0
		c0.1-0.3,0-0.6-0.3-0.7c-0.3-0.1-0.6,0-0.7,0.2l0,0.1l-1.5,3.4l0,0c0,0.1,0,0.2,0,0.3c0,0.1,0.1,0.2,0.2,0.2v0l0,0c0,0,0,0,0,0
		l3.4,1.5l0,0c0.3,0.1,0.6,0,0.7-0.3c0.1-0.3,0-0.6-0.2-0.7l-0.1,0L30.2,35c0.1,0,0.2-0.1,0.3-0.1c0.2-0.1,0.4-0.2,0.5-0.2
		c0.1,0,0.2-0.1,0.3-0.1c0.2-0.1,0.3-0.2,0.5-0.3c0,0,0.1,0,0.1-0.1C34.4,32.6,36.1,29.8,36.1,26.7 M39.5,26.7
		c0,6.6-5.5,11.9-12.3,11.9c-6.8,0-12.3-5.3-12.3-11.9c0-6.6,5.5-11.9,12.3-11.9C34,14.7,39.5,20.1,39.5,26.7 M41.7,25.3l3.4-3.1
		l-2.1-5.2l-4.5,0.5l-1.9-1.7l0.2-4.8l-5.1-2.1l-3.1,3.5h-1.3h-1.3l-3.1-3.5l-5.1,2.1l0.2,4.8l-1.9,1.7l-4.5-0.5l-2.1,5.2l3.4,3.1
		v2.8l-3.4,3l2.1,5l4.5-0.1l1.9,1.9l-0.2,4.8l5.2,2l3-3.4h1.3h1.3l3,3.4l5.2-2l-0.2-4.8l1.9-1.9l4.5,0.1l2.1-5l-3.4-3V25.3z"/>
</g>
</svg>
