<?xml version="1.0" encoding="utf-8"?>
<!-- Generator: Adobe Illustrator 28.0.0, SVG Export Plug-In . SVG Version: 6.00 Build 0)  -->
<svg version="1.1" id="Ebene_1" xmlns="http://www.w3.org/2000/svg" xmlns:xlink="http://www.w3.org/1999/xlink" x="0px" y="0px"
	 viewBox="0 0 53.9 53.9" style="enable-background:new 0 0 53.9 53.9;" xml:space="preserve">
<style type="text/css">
	.st0{clip-path:url(#SVGID_00000163783323075464141450000017120923560712485556_);fill:#1D91A6;}
	.st1{clip-path:url(#SVGID_00000163783323075464141450000017120923560712485556_);fill:#FFFFFF;}
</style>
<g>
	<defs>
		<rect id="SVGID_1_" x="1.4" y="1.4" width="51.2" height="51.2"/>
	</defs>
	<clipPath id="SVGID_00000110454225091996404170000004201882171431891387_">
		<use xlink:href="#SVGID_1_"  style="overflow:visible;"/>
	</clipPath>
	<path style="clip-path:url(#SVGID_00000110454225091996404170000004201882171431891387_);fill:#1D91A6;" d="M9.4,1.4
		C5,1.4,1.4,5,1.4,9.4v35c0,4.5,3.6,8.1,8.1,8.1h35c4.5,0,8.1-3.6,8.1-8.1v-35c0-4.5-3.6-8.1-8.1-8.1H9.4z"/>
	<path style="clip-path:url(#SVGID_00000110454225091996404170000004201882171431891387_);fill:#FFFFFF;" d="M25.4,37
		c0,0.1,0,0.2,0,0.3c0,1.1,0.9,2,2,2c1.1,0,2-0.9,2-2c0-0.1,0-0.2,0-0.3H25.4z"/>
	<path style="clip-path:url(#SVGID_00000110454225091996404170000004201882171431891387_);fill:#FFFFFF;" d="M34.7,32.8
		c-0.3-0.5-0.9-0.6-1.2-1.2c-0.3-0.5-0.3-3.4-1-5.3c-0.6-1.5-1.6-3.3-3.9-3.7c0,0,0-0.1,0-0.1c0-0.7-0.5-1.3-1.2-1.3
		c-0.7,0-1.2,0.6-1.2,1.3c0,0,0,0,0,0.1c-2.3,0.4-3.4,2.2-4,3.7c-0.7,1.9-0.8,4.7-1,5.3c-0.3,0.5-0.8,0.7-1.2,1.2
		c-0.3,0.5-0.4,1-0.3,1.5c0.1,0.8,1,1.1,1,1.1h6.7h0H34c0,0,0.9-0.3,1-1.1C35.1,33.8,35,33.3,34.7,32.8"/>
	<path style="clip-path:url(#SVGID_00000110454225091996404170000004201882171431891387_);fill:#FFFFFF;" d="M21.9,15.4
		c-0.3-0.9-1.2-0.8-1.2-0.8s-2.4,0.1-4.5,2.5c0,0,0,0.1-0.1,0.1c0,0,0,0-0.1,0.1c-2.1,2.4-1.9,4.8-1.9,4.8s0,1,0.9,1.1
		c0.9,0.2,1.2-0.8,1.2-0.8s0-0.2,0.1-0.4c0.1-1.2,0.5-2.4,1.4-3.3c0.8-1,2-1.6,3.1-1.8c0.3-0.1,0.4-0.1,0.4-0.1S22.1,16.3,21.9,15.4
		"/>
	<path style="clip-path:url(#SVGID_00000110454225091996404170000004201882171431891387_);fill:#FFFFFF;" d="M22.8,18.7
		c0,0-1.8,0.1-3.2,1.7l0,0c0,0,0,0,0,0c0,0,0,0,0,0l0,0c-1.4,1.6-1.2,3.4-1.2,3.4s0,1,0.9,1.1c0.9,0.2,1.2-0.8,1.2-0.8
		s0-0.2,0.1-0.4c0-0.3,0.2-1.1,0.7-1.9c0.6-0.7,1.4-0.9,1.7-1c0.3-0.1,0.4-0.1,0.4-0.1s0.9-0.4,0.6-1.3
		C23.8,18.6,22.8,18.7,22.8,18.7"/>
	<path style="clip-path:url(#SVGID_00000110454225091996404170000004201882171431891387_);fill:#FFFFFF;" d="M32.9,15.4
		c0.3-0.9,1.2-0.8,1.2-0.8s2.4,0.1,4.5,2.5c0,0,0,0.1,0.1,0.1c0,0,0,0,0.1,0.1c2.1,2.4,1.9,4.8,1.9,4.8s0,1-0.9,1.1
		c-0.9,0.2-1.2-0.8-1.2-0.8s0-0.2-0.1-0.4c-0.1-1.2-0.5-2.4-1.4-3.3c-0.8-1-1.9-1.6-3.1-1.8c-0.3-0.1-0.4-0.1-0.4-0.1
		S32.6,16.3,32.9,15.4"/>
	<path style="clip-path:url(#SVGID_00000110454225091996404170000004201882171431891387_);fill:#FFFFFF;" d="M32,18.7
		c0,0,1.8,0.1,3.2,1.7l0,0c0,0,0,0,0,0c0,0,0,0,0,0l0,0c1.4,1.6,1.2,3.4,1.2,3.4s0,1-0.9,1.1c-0.9,0.2-1.2-0.8-1.2-0.8
		s0-0.2-0.1-0.4c0-0.3-0.2-1.1-0.7-1.9c-0.6-0.7-1.4-0.9-1.7-1c-0.3-0.1-0.4-0.1-0.4-0.1s-0.9-0.4-0.6-1.3C31,18.6,32,18.7,32,18.7"
		/>
</g>
</svg>
