<?xml version="1.0" encoding="utf-8"?>
<!-- Generator: Adobe Illustrator 28.0.0, SVG Export Plug-In . SVG Version: 6.00 Build 0)  -->
<svg version="1.1" id="Ebene_1" xmlns="http://www.w3.org/2000/svg" xmlns:xlink="http://www.w3.org/1999/xlink" x="0px" y="0px"
	 viewBox="0 0 53.9 53.9" style="enable-background:new 0 0 53.9 53.9;" xml:space="preserve">
<style type="text/css">
	.st0{clip-path:url(#SVGID_00000060740928483777122820000018411939550298142630_);fill:#00ABC4;}
</style>
<g>
	<defs>
		<rect id="SVGID_1_" x="9.7" y="12.3" width="32.8" height="29.4"/>
	</defs>
	<clipPath id="SVGID_00000107549304698964971890000007171957838894306442_">
		<use xlink:href="#SVGID_1_"  style="overflow:visible;"/>
	</clipPath>
	<path style="clip-path:url(#SVGID_00000107549304698964971890000007171957838894306442_);fill:#00ABC4;" d="M39.3,15.3v12.7
		l-2.7-1.7c0.1-0.2,0.1-0.5,0.1-0.7c0-1.1-0.6-2-1.6-2.4l1.3-7.8H39.3z M12.7,15.3H19c-0.7,0.5-1.1,1.3-1.1,2.1c0,0.1,0,0.2,0,0.3
		l-5.2,2.1V15.3z M12.7,38.6V21.4l5.7-2.3c0.5,0.6,1.3,1,2.1,1c0,0,0.1,0,0.1,0l3.2,9.3c-0.7,0.5-1.1,1.2-1.1,2.1
		c0,0.2,0,0.5,0.1,0.7l-9.4,6.4H12.7z M25.6,34.1C25.6,34.1,25.6,34.1,25.6,34.1l1.6,4.5H16l7.7-5.2C24.2,33.8,24.8,34.1,25.6,34.1
		 M23.3,17.4c0-0.9-0.5-1.7-1.1-2.1H35l-1.3,7.6c-1.4,0.1-2.5,1.2-2.5,2.6c0,0.3,0.1,0.6,0.2,0.9l-4.3,2.9c-0.4-0.3-1-0.5-1.5-0.5
		c-0.1,0-0.2,0-0.4,0L22,19.7C22.8,19.2,23.3,18.4,23.3,17.4 M39.3,38.6H28.6l-1.7-4.8c0.8-0.5,1.4-1.3,1.4-2.3
		c0-0.4-0.1-0.8-0.2-1.1l4.2-2.9c0.5,0.4,1,0.6,1.7,0.6c0.7,0,1.4-0.3,1.9-0.8l3.4,2.2V38.6z M42.5,39.6V14.3c0-1.1-0.9-2-2-2H11.7
		c-1.1,0-2,0.9-2,2v25.4c0,1.1,0.9,2,2,2h28.8C41.6,41.6,42.5,40.8,42.5,39.6"/>
</g>
</svg>
