<?xml version="1.0" encoding="utf-8"?>
<!-- Generator: Adobe Illustrator 28.0.0, SVG Export Plug-In . SVG Version: 6.00 Build 0)  -->
<svg version="1.1" id="Ebene_1" xmlns="http://www.w3.org/2000/svg" xmlns:xlink="http://www.w3.org/1999/xlink" x="0px" y="0px"
	 viewBox="0 0 187.1 178.6" style="enable-background:new 0 0 187.1 178.6;" xml:space="preserve">
<style type="text/css">
	.st0{clip-path:url(#SVGID_00000102510775208896361810000013404775435027169192_);fill:#192542;}
	.st1{clip-path:url(#SVGID_00000114074956554454236250000014279894083945890193_);fill:#00ADCC;}
	.st2{fill:#0A5E87;}
	.st3{clip-path:url(#SVGID_00000009549894723617096570000012682969323489970563_);fill:#0A5E87;}
</style>
<g>
	<defs>
		<rect id="SVGID_1_" x="15" y="10.7" width="157.1" height="157.1"/>
	</defs>
	<clipPath id="SVGID_00000163788093137237601440000013218287541337900463_">
		<use xlink:href="#SVGID_1_"  style="overflow:visible;"/>
	</clipPath>
	<path style="clip-path:url(#SVGID_00000163788093137237601440000013218287541337900463_);fill:#192542;" d="M93.6,167.9
		c43.4,0,78.6-35.2,78.6-78.6c0-43.4-35.2-78.6-78.6-78.6S15,45.9,15,89.3C15,132.7,50.2,167.9,93.6,167.9"/>
</g>
<g>
	<defs>
		
			<ellipse id="SVGID_00000142160322765135869580000007153489861490189460_" transform="matrix(0.7071 -0.7071 0.7071 0.7071 -35.7447 92.3051)" cx="93.5" cy="89.3" rx="78.6" ry="78.6"/>
	</defs>
	<clipPath id="SVGID_00000121272699204584556220000000910119922528180383_">
		<use xlink:href="#SVGID_00000142160322765135869580000007153489861490189460_"  style="overflow:visible;"/>
	</clipPath>
	<polygon style="clip-path:url(#SVGID_00000121272699204584556220000000910119922528180383_);fill:#00ADCC;" points="129.3,80.2 
		143.6,-28.6 135.9,-29.6 121.4,80.4 93.3,99.7 60.9,5.5 53.5,8 68.3,50.8 -35.2,92.6 -32.3,99.8 70.8,58.1 86.7,104.3 -42.3,192.9 
		-37.9,199.3 89.3,111.9 119.6,199.9 127,197.3 96,107.3 125.5,87 218.9,144.2 222.9,137.6 	"/>
</g>
<polygon class="st2" points="70.7,58.2 77.9,55.1 93.3,99.7 86.6,104.2 "/>
<g>
	<defs>
		<rect id="SVGID_00000164502755547529981990000006584838254880509837_" x="15" y="10.7" width="157.1" height="157.1"/>
	</defs>
	<clipPath id="SVGID_00000023281507393828118170000012281709622255519627_">
		<use xlink:href="#SVGID_00000164502755547529981990000006584838254880509837_"  style="overflow:visible;"/>
	</clipPath>
	<path style="clip-path:url(#SVGID_00000023281507393828118170000012281709622255519627_);fill:#0A5E87;" d="M89.2,112l6.7-4.6
		l19.8,57.3c0,0-1.3,0.4-3.6,1c-1.8,0.4-4,0.9-4,0.9L89.2,112z"/>
</g>
</svg>
