<?xml version="1.0" encoding="utf-8"?>
<!-- Generator: Adobe Illustrator 28.0.0, SVG Export Plug-In . SVG Version: 6.00 Build 0)  -->
<svg version="1.1" id="Ebene_1" xmlns="http://www.w3.org/2000/svg" xmlns:xlink="http://www.w3.org/1999/xlink" x="0px" y="0px"
	 viewBox="0 0 187.1 178.6" style="enable-background:new 0 0 187.1 178.6;" xml:space="preserve">
<style type="text/css">
	.st0{clip-path:url(#SVGID_00000063594874479942932990000008303934876503074696_);fill:#00ADCC;}
	.st1{clip-path:url(#SVGID_00000063594874479942932990000008303934876503074696_);fill:#192542;}
</style>
<g>
	<defs>
		<rect id="SVGID_1_" x="13.9" y="9.6" width="159.4" height="159.4"/>
	</defs>
	<clipPath id="SVGID_00000051374122583178025950000016362738361561399197_">
		<use xlink:href="#SVGID_1_"  style="overflow:visible;"/>
	</clipPath>
	<path style="clip-path:url(#SVGID_00000051374122583178025950000016362738361561399197_);fill:#00ADCC;" d="M93.5,169
		c44,0,79.7-35.7,79.7-79.7S137.6,9.6,93.5,9.6S13.9,45.3,13.9,89.3S49.5,169,93.5,169"/>
	<path style="clip-path:url(#SVGID_00000051374122583178025950000016362738361561399197_);fill:#192542;" d="M148,92.2
		c-3.7-3.9-9.8-0.6-9.8-0.6L121.4,105c0,0-1.7,1.7-3.8,1.7c-1,0-1.4,0-3,0c-9.8-0.2-39.6-0.1-41-0.1c0,0,0,0-0.1,0c-1.7,0-3-1.3-3-3
		c0-1.5,1.1-2.7,2.6-2.9c0.2,0,0.4,0,0.4,0c0,0,0,0,0,0c0,0,0,0,0,0h26.8c0,0,6.5-0.2,6.6-6.6c0.1-7.2-7.7-6.8-7.7-6.8H62.1
		c0,0-4.8,0-8.1,2.8c-4.6,4.2-22,19.4-22,19.4l22.3,25.6l7.9-7.8c0,0,0.8-0.8,1.9-0.8c1.1,0,3,0,4.2,0c8.5,0,44.6,0.1,44.6,0.1
		s2.8,0.3,4.9-0.9s29.3-23,29.3-23S152.6,97.5,148,92.2"/>
	<path style="clip-path:url(#SVGID_00000051374122583178025950000016362738361561399197_);fill:#192542;" d="M97.6,61
		c0,4.9-4,8.9-8.9,8.9c-4.9,0-8.9-4-8.9-8.9s4-8.9,8.9-8.9C93.6,52.1,97.6,56.1,97.6,61 M106.1,59.3l4.1-3.8l-2.5-6.3l-5.5,0.6
		l-2.3-2.1l0.3-5.8L94,39.3l-3.8,4.3h-1.5h-1.5l-3.8-4.3l-6.2,2.6l0.3,5.8l-2.3,2.1l-5.5-0.6l-2.5,6.3l4.1,3.8v3.4l-4.1,3.7l2.5,6.1
		l5.5-0.1l2.3,2.3l-0.3,5.8l6.3,2.4l3.7-4.1h1.5h1.5l3.7,4.1l6.3-2.4l-0.3-5.8l2.3-2.3l5.5,0.1l2.5-6.1l-4.1-3.7V59.3z"/>
	<path style="clip-path:url(#SVGID_00000051374122583178025950000016362738361561399197_);fill:#192542;" d="M130.7,74.9
		c-0.5,2.9-3.3,4.8-6.2,4.3c-2.9-0.5-4.8-3.3-4.3-6.2c0.5-2.9,3.3-4.8,6.2-4.3C129.2,69.3,131.2,72,130.7,74.9 M138.7,73l-0.8-4
		l-3.3-0.2l-1.1-1.5l0.8-3.4l-3.4-2.2l-2.7,2.1l-0.9-0.2l-0.9-0.2l-1.8-2.9l-3.9,0.9l-0.4,3.4l-1.6,1l-3.2-0.9l-2.2,3.5l2,2.7
		l-0.4,2l-2.8,1.7l0.9,3.8l3.3,0.5l1.1,1.6l-0.8,3.4l3.5,2.1l2.6-2l0.9,0.2l0.9,0.2l1.7,2.8l4-0.8l0.4-3.4l1.6-1.1l3.2,0.7l2.1-3.3
		l-2-2.6l0.4-2L138.7,73z"/>
</g>
</svg>
