<?xml version="1.0" encoding="utf-8"?>
<!-- Generator: Adobe Illustrator 28.0.0, SVG Export Plug-In . SVG Version: 6.00 Build 0)  -->
<svg version="1.1" id="Ebene_1" xmlns="http://www.w3.org/2000/svg" xmlns:xlink="http://www.w3.org/1999/xlink" x="0px" y="0px"
	 viewBox="0 0 187.1 178.6" style="enable-background:new 0 0 187.1 178.6;" xml:space="preserve">
<style type="text/css">
	.st0{clip-path:url(#SVGID_00000049938233760463726650000014329781885927592597_);fill:#192542;}
	.st1{clip-path:url(#SVGID_00000163759050704955591430000002052603160979035070_);fill:#0A5E87;}
	.st2{clip-path:url(#SVGID_00000050649763982836300680000004250074636964365497_);fill:#00ABC4;}
</style>
<g>
	<defs>
		<rect id="SVGID_1_" x="15" y="10.7" width="157.1" height="157.1"/>
	</defs>
	<clipPath id="SVGID_00000066484789631158323640000004876844539852231340_">
		<use xlink:href="#SVGID_1_"  style="overflow:visible;"/>
	</clipPath>
	<path style="clip-path:url(#SVGID_00000066484789631158323640000004876844539852231340_);fill:#192542;" d="M93.6,167.9
		c43.4,0,78.6-35.2,78.6-78.6c0-43.4-35.2-78.6-78.6-78.6S15,45.9,15,89.3C15,132.7,50.2,167.9,93.6,167.9"/>
</g>
<g>
	<defs>
		
			<ellipse id="SVGID_00000109025967871719084580000005096668374927497098_" transform="matrix(0.7071 -0.7071 0.7071 0.7071 -35.7447 92.3051)" cx="93.5" cy="89.3" rx="78.6" ry="78.6"/>
	</defs>
	<clipPath id="SVGID_00000109009838295679169950000000243917504347964856_">
		<use xlink:href="#SVGID_00000109025967871719084580000005096668374927497098_"  style="overflow:visible;"/>
	</clipPath>
	<path style="clip-path:url(#SVGID_00000109009838295679169950000000243917504347964856_);fill:#0A5E87;" d="M126.7,74.1
		c4.6,0,8.3,3.7,8.3,8.3c0,4.6-3.7,8.3-8.3,8.3c-4.6,0-8.3-3.7-8.3-8.3C118.4,77.9,122.1,74.1,126.7,74.1 M100.1,106.5
		c0,4.6-3.7,8.3-8.3,8.3c-4.6,0-8.3-3.7-8.3-8.3c0-4.6,3.7-8.3,8.3-8.3C96.4,98.2,100.1,102,100.1,106.5 M73.2,60.4
		c-4.6,0-8.3-3.7-8.3-8.3c0-4.6,3.7-8.3,8.3-8.3c4.6,0,8.3,3.7,8.3,8.3C81.5,56.7,77.8,60.4,73.2,60.4 M102.3,164.4
		c0-4.6,3.7-8.3,8.3-8.3c4.6,0,8.3,3.7,8.3,8.3c0,4.6-3.7,8.3-8.3,8.3C106.1,172.7,102.3,169,102.3,164.4 M130.9,67.8l12.7-96.4
		l-7.7-1l-12.8,97.2c-6.7,1.6-11.7,7.6-11.7,14.8c0,1.6,0.3,3,0.7,4.4L101,94.5c-2.6-2-5.8-3.2-9.3-3.2c-0.4,0-0.8,0.1-1.2,0.1
		l-9.1-26.5c4.2-2.7,7-7.4,7-12.8c0-8.4-6.8-15.2-15.2-15.2c-0.5,0-0.9,0.1-1.4,0.1L60.9,5.5L53.5,8l10.9,31.5
		c-3.9,2.8-6.5,7.3-6.5,12.5c0,1,0.1,1.9,0.3,2.8l-93.4,37.7l2.9,7.2l93.9-37.9c2.8,3.3,6.9,5.4,11.6,5.4c0.3,0,0.5-0.1,0.8-0.1
		l9.2,26.7c-4,2.7-6.7,7.4-6.7,12.6c0,1.5,0.3,3,0.7,4.4l-119.5,82.1l4.4,6.4l119.1-81.9c2.7,2.6,6.4,4.2,10.5,4.2
		c0.3,0,0.6-0.1,1-0.1l10.2,29.6c-4.5,2.7-7.5,7.5-7.5,13.1c0,8.4,6.8,15.2,15.2,15.2c0.7,0,1.3-0.1,2-0.2l7.1,20.5l7.3-2.5
		l-7.2-20.9c3.7-2.8,6.1-7.2,6.1-12.1c0-8.4-6.8-15.2-15.2-15.2c-0.1,0-0.2,0-0.2,0L100,119.2c4.1-2.7,6.9-7.4,6.9-12.7
		c0-2.1-0.4-4.1-1.2-5.9l10.4-7.2c2.7,2.6,6.4,4.2,10.4,4.2c3.8,0,7.3-1.5,10-3.8l82.3,50.4l4.1-6.6l-82-50.2c0.6-1.6,0.9-3.2,0.9-5
		C141.9,75.5,137.2,69.7,130.9,67.8"/>
</g>
<g>
	<defs>
		<rect id="SVGID_00000137822551481411150290000007417505649309436291_" x="15" y="10.7" width="157.1" height="157.1"/>
	</defs>
	<clipPath id="SVGID_00000182511312712358249980000018175634350998371989_">
		<use xlink:href="#SVGID_00000137822551481411150290000007417505649309436291_"  style="overflow:visible;"/>
	</clipPath>
	<path style="clip-path:url(#SVGID_00000182511312712358249980000018175634350998371989_);fill:#00ABC4;" d="M118,82.2
		c0-4.6,3.7-8.4,8.4-8.4c4.6,0,8.4,3.7,8.4,8.4c0,4.6-3.7,8.4-8.4,8.4C121.7,90.6,118,86.9,118,82.2 M110.9,82.2
		c0,8.5,6.9,15.3,15.3,15.3c8.5,0,15.3-6.9,15.3-15.3c0-8.5-6.9-15.3-15.3-15.3S110.9,73.7,110.9,82.2"/>
	<path style="clip-path:url(#SVGID_00000182511312712358249980000018175634350998371989_);fill:#00ABC4;" d="M65.2,52.2
		c0-4.6,3.7-8.4,8.4-8.4s8.4,3.7,8.4,8.4c0,4.6-3.7,8.4-8.4,8.4C69,60.6,65.2,56.8,65.2,52.2 M58.2,52.1c0,8.5,6.9,15.3,15.3,15.3
		c8.5,0,15.3-6.9,15.3-15.3c0-8.5-6.9-15.3-15.3-15.3S58.2,43.6,58.2,52.1"/>
	<path style="clip-path:url(#SVGID_00000182511312712358249980000018175634350998371989_);fill:#00ABC4;" d="M83.1,106.6
		c0-4.6,3.7-8.4,8.4-8.4s8.4,3.7,8.4,8.4c0,4.6-3.7,8.4-8.4,8.4C86.8,115,83.1,111.3,83.1,106.6 M76,106.6c0,8.5,6.9,15.3,15.3,15.3
		c8.5,0,15.3-6.9,15.3-15.3c0-8.5-6.9-15.3-15.3-15.3S76,98.1,76,106.6"/>
</g>
</svg>
