<?xml version="1.0" encoding="utf-8"?>
<!-- Generator: Adobe Illustrator 28.0.0, SVG Export Plug-In . SVG Version: 6.00 Build 0)  -->
<svg version="1.1" id="Ebene_1" xmlns="http://www.w3.org/2000/svg" xmlns:xlink="http://www.w3.org/1999/xlink" x="0px" y="0px"
	 viewBox="0 0 187.1 178.6" style="enable-background:new 0 0 187.1 178.6;" xml:space="preserve">
<style type="text/css">
	.st0{clip-path:url(#SVGID_00000026873568162570429990000009839712812252818861_);fill:#192542;}
	.st1{clip-path:url(#SVGID_00000016049443983511547720000018375171861996652979_);fill:#0A5E87;}
	.st2{clip-path:url(#SVGID_00000016049443983511547720000018375171861996652979_);fill:#00ADCC;}
</style>
<g>
	<defs>
		<rect id="SVGID_1_" x="15" y="10.7" width="157.1" height="157.1"/>
	</defs>
	<clipPath id="SVGID_00000004511761785926413480000007488398171321685644_">
		<use xlink:href="#SVGID_1_"  style="overflow:visible;"/>
	</clipPath>
	<path style="clip-path:url(#SVGID_00000004511761785926413480000007488398171321685644_);fill:#192542;" d="M93.6,167.9
		c43.4,0,78.6-35.2,78.6-78.6c0-43.4-35.2-78.6-78.6-78.6S15,45.9,15,89.3C15,132.7,50.2,167.9,93.6,167.9"/>
</g>
<g>
	<defs>
		
			<ellipse id="SVGID_00000078728859238878183740000000301013248233401022_" transform="matrix(0.7071 -0.7071 0.7071 0.7071 -35.7447 92.3051)" cx="93.5" cy="89.3" rx="78.6" ry="78.6"/>
	</defs>
	<clipPath id="SVGID_00000068656038146682319720000004810986908602263450_">
		<use xlink:href="#SVGID_00000078728859238878183740000000301013248233401022_"  style="overflow:visible;"/>
	</clipPath>
	<path style="clip-path:url(#SVGID_00000068656038146682319720000004810986908602263450_);fill:#0A5E87;" d="M142.1,92.5
		c0,0-0.9,3.5-5.3,11.1c-2.9,5-8.7,10.6-7,18.4c1.4,6.2,5.3,10.5,12.2,10.5c6.3,0,11.3-4.7,12.6-11.4c1.2-6.6-5.2-13.5-7.4-17.7
		C143.7,96.8,142.1,92.5,142.1,92.5"/>
	<path style="clip-path:url(#SVGID_00000068656038146682319720000004810986908602263450_);fill:#00ADCC;" d="M147.4,81.9
		c1.8-0.8,3.3-2.1,4.5-3.6l-5.5-9.5l-3.3,5.7L147.4,81.9z M141.9,61.1l-3.3,5.7l3.4,5.8l3.3-5.7L141.9,61.1z M137.5,64.8l3.3-5.7
		l-3.3-5.7l-3.3,5.6L137.5,64.8z M146.4,53.4l-3.3,5.7l3.4,5.8l3.3-5.7L146.4,53.4z M138.5,82.6c1.1,0.3,2.3,0.5,3.5,0.5
		c1.3,0,2.5-0.2,3.6-0.5l-3.5-6.1L138.5,82.6z M132,78.3c1.2,1.5,2.8,2.8,4.6,3.6l4.3-7.4l-3.4-5.8L132,78.3z M130.7,65.2
		c-0.8,1.7-1.3,3.5-1.3,5.5c0,2.1,0.5,4,1.5,5.7l5.6-9.7l-3.3-5.7l-2,3.4c-0.1,0.2-0.2,0.4-0.3,0.6L130.7,65.2L130.7,65.2z
		 M145.3,51.4l-3.3-5.6l-3.3,5.7l3.3,5.7L145.3,51.4z M153.1,76.5c0.9-1.7,1.5-3.7,1.5-5.7c0-2.2-0.6-4.3-1.7-6.1l-2-3.5l-3.3,5.7
		L153.1,76.5z"/>
	<path style="clip-path:url(#SVGID_00000068656038146682319720000004810986908602263450_);fill:#0A5E87;" d="M78.3,103.3
		c-1.6,1.3-4.6,2.8-4.6,2.8s5.8,3.8,16,2.8c5.8-0.6,14.7-4.5,20.3-3c6.3,1.7,12.7,7,12.7,7l5.2-6.7c0,0-8.9-7.8-18.9-9.1
		c-6.9-0.9-13.7,2.4-19.2,3.2c-3.2,0.5-8.1,0-8.1,0S80.7,101.4,78.3,103.3 M5.3,95.1L5,103.1c0,0,3.1,0.5,7,0
		c3.8-0.5,6.8-1.7,10.3-3.8c4.3-2.6,10.8-8.4,10.8-8.4s-1.5-2.3-3-3.9c-1.5-1.7-2.5-2.5-2.5-2.5s-8.4,6.8-12.7,8.8
		S5.3,95.1,5.3,95.1 M65.1,93.9c1.6-0.9,3.9-2.6,3.9-2.6s-5.8-6.2-11.7-9.6c-6.7-3.8-13.1-3.1-13.1-3.1s2.4,2.7,3.9,4.8
		c1.6,2.1,3.3,5.2,3.3,5.2s2.2,0.7,4.5,2.5c2.3,1.8,5.4,4.6,5.4,4.6S63.5,94.8,65.1,93.9"/>
	<path style="clip-path:url(#SVGID_00000068656038146682319720000004810986908602263450_);fill:#00ADCC;" d="M121.9,68.8l4.4-7.5
		c0,0-1.5-1.2-3.6-1.9c-2.4-0.8-6.5-1.6-13,0.7c-7.6,2.7-15.3,11-25.4,21.7C73.7,93,68.5,98.2,61.5,98.3c-5.5,0.1-8.7-3.5-12.4-7.5
		c-3.7-4-12.4-19.2-23.2-20.1c-11.8-1-20.4,7.3-20.4,7.3l0.9,9.6c0,0,5.9-4.4,9.1-6.2c3.1-1.7,5.5-2.5,9.6-2.1
		c5.2,0.5,10,7.3,13.2,11.8c3.2,4.5,10.8,14,19.8,15.6c8.8,1.5,13.9-2.5,20.1-7c6.2-4.4,15.6-16.1,21.3-21.7
		c5.7-5.6,10.4-9.3,14.5-10.4C118,66.7,121.9,68.8,121.9,68.8"/>
</g>
</svg>
