<?xml version="1.0" encoding="utf-8"?>
<!-- Generator: Adobe Illustrator 28.0.0, SVG Export Plug-In . SVG Version: 6.00 Build 0)  -->
<svg version="1.1" id="Ebene_1" xmlns="http://www.w3.org/2000/svg" xmlns:xlink="http://www.w3.org/1999/xlink" x="0px" y="0px"
	 viewBox="0 0 1757.5 878.7" style="enable-background:new 0 0 1757.5 878.7;" xml:space="preserve">
<style type="text/css">
	.st0{fill:#162343;}
	.st1{clip-path:url(#SVGID_00000159441599699109416960000017532500961329269637_);fill:#DFE2E7;}
	.st2{fill:#00ABC4;}
	.st3{clip-path:url(#SVGID_00000170976001194418245990000015451029878517988776_);fill:#FFFFFF;}
	.st4{fill:#FFFFFF;}
	.st5{fill:#028DAA;}
	.st6{clip-path:url(#SVGID_00000047767952154264801080000000003689645618683805_);fill:#FFFFFF;}
	.st7{clip-path:url(#SVGID_00000047767952154264801080000000003689645618683805_);fill:#00ABC4;}
	.st8{font-family:'OpenSans-Bold';}
	.st9{font-size:30.3366px;}
	.st10{font-family:'OpenSans-SemiBold';}
	.st11{font-size:23.2985px;}
	.st12{font-size:23px;}
	.st13{font-size:15px;}
	.st14{fill:none;stroke:#00ABC4;stroke-width:2;}
	.st15{font-size:40px;}
</style>
<rect x="683.2" y="0" class="st0" width="1074.3" height="878.7"/>
<g>
	<defs>
		<rect id="SVGID_1_" x="0" y="0" width="1757.5" height="878.7"/>
	</defs>
	<clipPath id="SVGID_00000036943869647160661340000005208449064314515334_">
		<use xlink:href="#SVGID_1_"  style="overflow:visible;"/>
	</clipPath>
	<path style="clip-path:url(#SVGID_00000036943869647160661340000005208449064314515334_);fill:#DFE2E7;" d="M1216.1,224.5v-90
		c0-16.4-13.6-29.6-30.4-29.6H617.2c-16.8,0-30.4,13.3-30.4,29.6v72.8v539.8c0,16.4,13.6,29.6,30.4,29.6h568.4
		c16.8,0,30.4-13.3,30.4-29.6V224.5z"/>
</g>
<rect x="549.9" y="0" class="st2" width="133.2" height="878.7"/>
<g>
	<defs>
		<rect id="SVGID_00000134929669474549617460000011362846291377132724_" x="0" y="0" width="1757.5" height="878.7"/>
	</defs>
	<clipPath id="SVGID_00000080900119902321950360000000737988947589573559_">
		<use xlink:href="#SVGID_00000134929669474549617460000011362846291377132724_"  style="overflow:visible;"/>
	</clipPath>
	<path style="clip-path:url(#SVGID_00000080900119902321950360000000737988947589573559_);fill:#FFFFFF;" d="M623.4,108.7
		c2,1.6,4,4.2,4,7.1c0,4.5-3.4,7-11.3,7c-6.6,0-9.9-2.4-9.9-6.8c0-3.1,2.3-5.9,4.1-7.3H623.4z M629.4,102.7h-28.2v6.1h2.9
		c-1.9,1.7-3.6,4.6-3.6,7.8c0,6.4,5,12.3,15.7,12.3c11.9,0,16.7-5.3,16.7-12c0-3.3-1.5-5.8-3.6-8.1h0.5c6.5,0,8.8,1.9,9.2,10.7
		l4.6-2.1C643.4,106.2,638.9,102.7,629.4,102.7 M632.3,135.5h-17.8c-9.2,0-13.9,3.9-13.9,11.1c0,3.2,1.4,6.3,3.6,7.8h-3v6.1h31.1
		v-6.1h-18.2c-5,0-7.9-2.3-7.9-6.4c0-4,2.3-6.4,8.5-6.4h17.6V135.5z M632.3,169.8h-31.1v6.1h31.1V169.8z M593.3,168.9
		c-2.2,0-4,1.8-4,3.9c0,2.2,1.8,4,4,4c2.1,0,3.9-1.8,3.9-4C597.2,170.7,595.4,168.9,593.3,168.9"/>
	<path style="clip-path:url(#SVGID_00000080900119902321950360000000737988947589573559_);fill:#FFFFFF;" d="M602.8,180.6
		c-0.8,1.2-1.3,2.8-1.3,5.3c0,3.1,1.5,5.7,3.6,7.1h-3v6.1h31.1V193h-17.8c-5.3,0-8-2.3-8-6.1c0-2,0.4-3.4,1.1-4.7L602.8,180.6z
		 M614.9,212.8v14.5c-5-0.5-7.8-3-7.8-7.1C607,215.2,610.6,213.1,614.9,212.8 M617.1,206.7c-8.4,0-15.6,4.3-15.6,13.1
		c0,8.1,5.7,13.6,16.2,13.6c10.3,0,16.2-6.2,16.2-13.5c0-4.7-1.5-8-4.1-10.7l-3.9,3.6c1.5,2.1,2.5,4.2,2.5,6.8
		c0,3.8-2.5,7.2-8.5,7.8v-20.6C619.3,206.8,618.2,206.7,617.1,206.7 M627.1,239c0.7,1.1,1.2,2.9,1.2,4.5c0,2.3-0.8,3.2-3.7,3.2
		h-16.9V239h-5.6v7.7h-12.1l3.2,6h8.9v4.4h5.6v-4.4h18c5.6,0,8.2-2.7,8.2-7c0-2.4-0.6-4.5-1.4-6L627.1,239z M624.5,269.4
		c2,1.4,4,4.3,4,7.5c0,4-2.1,6-5.2,6c-2.8,0-4.6-2.5-4.6-6.4c0-3.3,0.5-5.5,1.4-7.1H624.5z M633.3,263.4H612
		c-7.1,0-10.4,4.7-10.4,11.7c0,4.4,0.9,7.7,2.8,10.7l4.6-2.4c-1.4-2.4-2-4.9-2-8.1c0-3.8,1.9-5.9,5.3-5.9h2.3
		c-0.8,1.7-1.2,4-1.2,6.9c0,7.1,3.1,12.4,10.1,12.4c7.7,0,10.5-5.8,10.5-10.8c0-3.4-1.6-6.4-3.7-8.5h3.1V263.4z M602.2,292.1v6
		l15.1,3.7c2.4,0.6,5.3,1.2,6.8,1.5c-1.5,0.4-4.3,1-6.8,1.7l-15.2,4.2v4.9l15.1,4.2c2.4,0.7,5.3,1.4,6.8,1.7
		c-1.5,0.3-4.4,0.9-6.8,1.5l-15.1,3.7v6l31.1-8.5v-5.2l-15.7-4.2c-2.4-0.7-5.2-1.3-6.7-1.6c1.5-0.3,4.3-0.9,6.6-1.6l15.7-4.2v-5.2
		L602.2,292.1z"/>
	<path style="clip-path:url(#SVGID_00000080900119902321950360000000737988947589573559_);fill:#FFFFFF;" d="M627.9,386.8l11.3,20.1
		c1.9-3.6,3-7.7,3-12c0-4.7-1.3-9-3.4-12.8l-4.1-7.3L627.9,386.8z M618.9,402.7l8.7,15.4c3.6-1.7,6.8-4.3,9.2-7.4l-11.2-19.8
		L618.9,402.7z M609.7,386.5l6.9,12.1l6.7-11.9l-6.9-12.1L609.7,386.5z M609.3,419.6c2.3,0.6,4.6,1,7.1,1c2.6,0,5-0.4,7.3-1.1
		l-7.2-12.7L609.3,419.6z M607.4,390.6l-11.3,20c2.5,3.2,5.7,5.8,9.5,7.6l8.7-15.5L607.4,390.6z M605.1,386.5l-6.8-11.9l-4.1,7.1
		c-0.2,0.4-0.5,0.8-0.7,1.2l-0.3,0.5l0,0c-1.7,3.5-2.7,7.4-2.7,11.5c0,4.3,1.1,8.4,3,12L605.1,386.5z M614.1,370.6l-6.7-11.9
		l-6.7,11.8l6.7,11.9L614.1,370.6z M616.4,366.5l6.8-12l-6.7-11.8l-6.8,12L616.4,366.5z M632.4,370.7l-6.9-12.1l-6.8,12l6.9,12.1
		L632.4,370.7z"/>
</g>
<rect x="589.9" y="431.1" class="st4" width="52.3" height="4"/>
<rect x="0" y="0" class="st5" width="549.9" height="878.7"/>
<g>
	<defs>
		<rect id="SVGID_00000019663201192798622490000015059866927612902050_" x="0" y="0" width="1757.5" height="878.7"/>
	</defs>
	<clipPath id="SVGID_00000162331753198104477900000013938285401640747914_">
		<use xlink:href="#SVGID_00000019663201192798622490000015059866927612902050_"  style="overflow:visible;"/>
	</clipPath>
	<path style="clip-path:url(#SVGID_00000162331753198104477900000013938285401640747914_);fill:#FFFFFF;" d="M752.9,243.6
		c-15.1,0-27.3,12.2-27.3,27.3c0,15.1,12.2,27.3,27.3,27.3h362.5c15.1,0,27.3-12.2,27.3-27.3c0-15.1-12.2-27.3-27.3-27.3H752.9z"/>
	<path style="clip-path:url(#SVGID_00000162331753198104477900000013938285401640747914_);fill:#FFFFFF;" d="M755.4,332.2
		c-15.1,0-27.3,12.2-27.3,27.3c0,15.1,12.2,27.3,27.3,27.3h362.5c15.1,0,27.3-12.2,27.3-27.3c0-15.1-12.2-27.3-27.3-27.3H755.4z"/>
	<path style="clip-path:url(#SVGID_00000162331753198104477900000013938285401640747914_);fill:#FFFFFF;" d="M753.3,425
		c-15.1,0-27.3,12.2-27.3,27.3c0,15.1,12.2,27.3,27.3,27.3h362.5c15.1,0,27.3-12.2,27.3-27.3c0-15.1-12.2-27.3-27.3-27.3H753.3z"/>
	<path style="clip-path:url(#SVGID_00000162331753198104477900000013938285401640747914_);fill:#FFFFFF;" d="M755.4,516.5
		c-15.1,0-27.3,12.2-27.3,27.3c0,15.1,12.2,27.3,27.3,27.3h362.5c15.1,0,27.3-12.2,27.3-27.3c0-15.1-12.2-27.3-27.3-27.3H755.4z"/>
	<path style="clip-path:url(#SVGID_00000162331753198104477900000013938285401640747914_);fill:#00ABC4;" d="M758.6,593.7
		c-17.4,0-31.5,14.1-31.5,31.5s14.1,31.5,31.5,31.5h139.2c17.4,0,31.5-14.1,31.5-31.5s-14.1-31.5-31.5-31.5H758.6z"/>
</g>
<text transform="matrix(1 0 0 1 771.0328 633.8748)" class="st4 st8 st9">Register</text>
<text transform="matrix(1 0 0 1 737.0172 689.4231)" class="st2 st10 st11">Forgot Password?</text>
<text transform="matrix(1 0 0 1 734.1744 739.7478)" class="st0 st10 st11">Don t have an account?</text>
<text transform="matrix(1 0 0 1 996.4567 739.7478)" class="st2 st10 st11"> Register here</text>
<text transform="matrix(1 0 0 1 731.3483 232.0169)" class="st0 st8 st12">Username</text>
<text transform="matrix(1 0 0 1 731.3483 326.2713)" class="st0 st8 st12">Mail</text>
<text transform="matrix(1 0 0 1 734.1774 414.844)" class="st0 st8 st12">Password</text>
<text transform="matrix(1 0 0 1 727.0934 504.1302)" class="st0 st8 st12">watering License Key </text>
<text transform="matrix(1 0 0 1 975.2555 504.1429)" class="st0 st10 st13">(in case you have one) </text>
<line class="st14" x1="1188.5" y1="120.1" x2="1158.4" y2="149.6"/>
<line class="st14" x1="1157.8" y1="120.6" x2="1188" y2="150"/>
<text transform="matrix(1 0 0 1 725.6783 178.0882)" class="st0 st8 st15">Register</text>
</svg>
