<?xml version="1.0" encoding="utf-8"?>
<!-- Generator: Adobe Illustrator 28.0.0, SVG Export Plug-In . SVG Version: 6.00 Build 0)  -->
<svg version="1.1" id="Ebene_1" xmlns="http://www.w3.org/2000/svg" xmlns:xlink="http://www.w3.org/1999/xlink" x="0px" y="0px"
	 viewBox="0 0 356 125.7" style="enable-background:new 0 0 356 125.7;" xml:space="preserve">
<style type="text/css">
	.st0{clip-path:url(#SVGID_00000124865820469449311230000010806346972692124599_);fill:#FFFFFF;}
	.st1{fill:#FFFFFF;}
</style>
<g>
	<defs>
		<rect id="SVGID_1_" x="14.1" y="9.1" width="328.1" height="108.1"/>
	</defs>
	<clipPath id="SVGID_00000173153456874885598950000008592676849350279824_">
		<use xlink:href="#SVGID_1_"  style="overflow:visible;"/>
	</clipPath>
	<path style="clip-path:url(#SVGID_00000173153456874885598950000008592676849350279824_);fill:#FFFFFF;" d="M56.7,58.7l12.7,22.5
		c2.1-4,3.3-8.6,3.3-13.5c0-5.2-1.4-10.1-3.8-14.4l-4.6-8.2L56.7,58.7z M46.6,76.6l9.7,17.2c4.1-2,7.6-4.8,10.3-8.4L54.1,63.2
		L46.6,76.6z M36.3,58.4L44,72l7.5-13.3L43.8,45L36.3,58.4z M35.9,95.5c2.5,0.7,5.2,1.1,8,1.1c2.9,0,5.6-0.4,8.2-1.2L44,81.1
		L35.9,95.5z M33.7,62.9L21,85.4c2.8,3.6,6.4,6.5,10.6,8.5l9.8-17.3L33.7,62.9z M31.1,58.4l-7.6-13.4l-4.6,8
		c-0.3,0.4-0.5,0.9-0.8,1.3l-0.3,0.5l0,0c-1.9,3.9-3.1,8.2-3.1,12.9c0,4.9,1.2,9.4,3.3,13.5L31.1,58.4z M41.3,40.5l-7.5-13.3
		l-7.6,13.3l7.6,13.4L41.3,40.5z M43.8,35.9l7.6-13.5L44,9.1l-7.7,13.4L43.8,35.9z M61.8,40.6L54.1,27l-7.6,13.5l7.7,13.6L61.8,40.6
		z"/>
	<path style="clip-path:url(#SVGID_00000173153456874885598950000008592676849350279824_);fill:#FFFFFF;" d="M335.4,94.4
		c-1.8,2.3-4.7,4.5-7.9,4.5c-5.1,0-7.9-3.9-7.9-12.6c0-7.4,2.7-11.1,7.6-11.1c3.5,0,6.7,2.5,8.2,4.6V94.4z M342.2,101.1V69.5h-6.9
		v3.3c-1.9-2.1-5.2-4-8.7-4c-7.2,0-13.8,5.7-13.8,17.6c0,13.3,6,18.8,13.4,18.8c3.7,0,6.5-1.7,9.1-4.1v0.6c0,7.3-2.1,9.9-12,10.4
		l2.3,5.2C338.3,116.9,342.2,111.7,342.2,101.1 M305.4,104.4v-20c0-10.3-4.3-15.6-12.4-15.6c-3.6,0-7.1,1.5-8.8,4.1v-3.3h-6.9v34.9
		h6.9V84c0-5.7,2.6-8.9,7.2-8.9c4.5,0,7.2,2.5,7.2,9.6v19.8H305.4z M266.9,69.5H260v34.9h6.9V69.5z M267.9,60.6c0-2.5-2-4.5-4.4-4.5
		c-2.5,0-4.5,2-4.5,4.5c0,2.4,2,4.4,4.5,4.4C265.9,64.9,267.9,62.9,267.9,60.6"/>
	<path style="clip-path:url(#SVGID_00000173153456874885598950000008592676849350279824_);fill:#FFFFFF;" d="M254.8,71.3
		c-1.4-0.9-3.1-1.5-5.9-1.5c-3.5,0-6.4,1.7-8,4.1v-3.3H234v34.9h6.9v-20c0-5.9,2.5-9,6.9-9c2.3,0,3.8,0.5,5.3,1.3L254.8,71.3z
		 M218.6,84.8h-16.2c0.6-5.6,3.4-8.8,8-8.8C216,76,218.3,80,218.6,84.8 M225.5,87.3c0-9.5-4.8-17.5-14.7-17.5
		c-9.1,0-15.3,6.4-15.3,18.2c0,11.6,6.9,18.2,15.1,18.2c5.3,0,9-1.7,12-4.6l-4.1-4.4c-2.3,1.7-4.7,2.8-7.6,2.8
		c-4.3,0-8.1-2.9-8.8-9.6h23.1C225.4,89.7,225.5,88.6,225.5,87.3 M189.2,98.6c-1.3,0.7-3.3,1.4-5.1,1.4c-2.5,0-3.6-0.9-3.6-4.2v-19
		h8.7v-6.3h-8.7V57l-6.7,3.6v10h-5v6.3h5V97c0,6.3,3,9.3,7.9,9.3c2.7,0,5.1-0.7,6.7-1.6L189.2,98.6z M155.1,95.6
		c-1.6,2.2-4.8,4.5-8.5,4.5c-4.5,0-6.7-2.3-6.7-5.8c0-3.2,2.8-5.2,7.2-5.2c3.7,0,6.1,0.6,8,1.5V95.6z M161.8,105.5v-24
		c0-7.9-5.3-11.7-13.1-11.7c-4.9,0-8.7,1.1-12,3.1l2.7,5.2c2.7-1.5,5.5-2.2,9.1-2.2c4.3,0,6.6,2.1,6.6,5.9v2.6
		c-1.9-0.9-4.5-1.3-7.8-1.3c-7.9,0-13.9,3.5-13.9,11.3c0,8.6,6.5,11.8,12.1,11.8c3.8,0,7.2-1.8,9.6-4.2v3.5H161.8z M129.7,70.5h-6.8
		l-4.1,17c-0.7,2.7-1.3,5.9-1.7,7.7c-0.4-1.7-1.1-4.9-1.9-7.6l-4.7-17h-5.5l-4.7,17c-0.7,2.7-1.5,5.9-1.9,7.7
		c-0.3-1.7-1.1-5-1.7-7.7l-4.1-17h-6.8l9.6,34.9h5.9l4.7-17.6c0.7-2.7,1.5-5.9,1.8-7.5c0.3,1.7,1.1,4.8,1.8,7.5l4.7,17.6h5.9
		L129.7,70.5z"/>
</g>
<rect x="14.1" y="108.4" class="st1" width="58.7" height="4.5"/>
</svg>
