<?xml version="1.0" encoding="utf-8"?>
<!-- Generator: Adobe Illustrator 28.0.0, SVG Export Plug-In . SVG Version: 6.00 Build 0)  -->
<svg version="1.1" id="Ebene_1" xmlns="http://www.w3.org/2000/svg" xmlns:xlink="http://www.w3.org/1999/xlink" x="0px" y="0px"
	 viewBox="0 0 19.8 11.3" style="enable-background:new 0 0 19.8 11.3;" xml:space="preserve">
<style type="text/css">
	.st0{clip-path:url(#SVGID_00000031208425046774912100000016629307256861629367_);fill:#00ABC4;}
</style>
<g>
	<defs>
		<rect id="SVGID_1_" x="1.2" y="0.8" width="17.3" height="10.2"/>
	</defs>
	<clipPath id="SVGID_00000173161453535719089770000011359768299864270247_">
		<use xlink:href="#SVGID_1_"  style="overflow:visible;"/>
	</clipPath>
	<path style="clip-path:url(#SVGID_00000173161453535719089770000011359768299864270247_);fill:#00ABC4;" d="M8.3,5.9L3.7,1.3
		L3.6,1.2c-0.6-0.5-1.4-0.5-2,0.1c-0.5,0.5-0.6,1.4-0.1,2l0.1,0.1L9,10.7l0,0c0.2,0.2,0.5,0.3,0.8,0.3c0.3,0,0.6-0.1,0.8-0.3l0,0
		l0,0c0,0,0,0,0,0L18,3.3l0.1-0.1c0.5-0.6,0.5-1.4-0.1-2c-0.6-0.6-1.4-0.6-2-0.1L16,1.3L9.9,7.5"/>
</g>
</svg>
