<?xml version="1.0" encoding="utf-8"?>
<!-- Generator: Adobe Illustrator 28.0.0, SVG Export Plug-In . SVG Version: 6.00 Build 0)  -->
<svg version="1.1" id="Ebene_1" xmlns="http://www.w3.org/2000/svg" xmlns:xlink="http://www.w3.org/1999/xlink" x="0px" y="0px"
	 viewBox="0 0 297.1 418.6" style="enable-background:new 0 0 297.1 418.6;" xml:space="preserve">
<style type="text/css">
	.st0{clip-path:url(#SVGID_00000160894998358454268400000015986890534498436770_);fill:#FFFFFF;}
</style>
<g>
	<defs>
		<rect id="SVGID_1_" x="20.7" y="15.5" width="256.5" height="388.5"/>
	</defs>
	<clipPath id="SVGID_00000043426974426204182110000001124100288683676829_">
		<use xlink:href="#SVGID_1_"  style="overflow:visible;"/>
	</clipPath>
	<path style="clip-path:url(#SVGID_00000043426974426204182110000001124100288683676829_);fill:#FFFFFF;" d="M206,235.3l56.4,100
		c9.4-17.9,14.8-38.2,14.8-59.9c0-23.2-6.2-44.9-17-63.7l-20.4-36.3L206,235.3z M161.2,314.8l43.2,76.5c18-8.7,33.7-21.4,45.8-37.1
		l-55.6-98.6L161.2,314.8z M115.6,234l34.1,60.5l33.4-59.2l-34.1-60.5L115.6,234z M113.7,399c11.2,3.2,23.1,5,35.3,5
		c12.7,0,25-1.9,36.5-5.3l-35.8-63.5L113.7,399z M104.1,254.3l-56.3,99.8c12.4,16,28.5,29,47,37.7l43.5-77L104.1,254.3z M92.6,234
		L59,174.4l-20.2,35.4c-1.2,2-2.3,3.9-3.4,5.9l-1.4,2.4l0.2,0c-8.6,17.3-13.5,36.6-13.5,57.2c0,21.6,5.4,41.9,14.8,59.8L92.6,234z
		 M137.5,154.5l-33.4-59.1l-33.5,58.9l33.5,59.4L137.5,154.5z M148.9,134.1l33.8-59.9l-33.1-58.8l-34,59.6L148.9,134.1z
		 M228.3,155.1l-34.1-60.5l-33.8,59.9l34.1,60.5L228.3,155.1z"/>
</g>
</svg>
