<?xml version="1.0" encoding="utf-8"?>
<!-- Generator: Adobe Illustrator 28.0.0, SVG Export Plug-In . SVG Version: 6.00 Build 0)  -->
<svg version="1.1" id="Ebene_1" xmlns="http://www.w3.org/2000/svg" xmlns:xlink="http://www.w3.org/1999/xlink" x="0px" y="0px"
	 viewBox="0 0 80.4 390.8" style="enable-background:new 0 0 80.4 390.8;" xml:space="preserve">
<style type="text/css">
	.st0{clip-path:url(#SVGID_00000108278494787271785120000008606565215893095085_);fill:#FFFFFF;}
	.st1{fill:#FFFFFF;}
</style>
<g>
	<defs>
		<rect id="SVGID_1_" x="9.9" y="8.6" width="61.2" height="373"/>
	</defs>
	<clipPath id="SVGID_00000064323735032091141600000011486357961899373999_">
		<use xlink:href="#SVGID_1_"  style="overflow:visible;"/>
	</clipPath>
	<path style="clip-path:url(#SVGID_00000064323735032091141600000011486357961899373999_);fill:#FFFFFF;" d="M48.2,15.3
		c2.3,1.8,4.5,4.7,4.5,7.9c0,5.1-3.9,7.9-12.6,7.9c-7.4,0-11.1-2.7-11.1-7.6c0-3.5,2.5-6.7,4.6-8.2H48.2z M54.9,8.6H23.3v6.9h3.3
		c-2.1,1.9-4,5.2-4,8.7c0,7.2,5.7,13.8,17.6,13.8c13.3,0,18.8-6,18.8-13.4c0-3.7-1.7-6.5-4.1-9.1h0.6c7.3,0,9.9,2.1,10.4,12l5.2-2.3
		C70.7,12.4,65.6,8.6,54.9,8.6 M58.3,45.3h-20c-10.3,0-15.6,4.3-15.6,12.4c0,3.6,1.5,7.1,4.1,8.8h-3.3v6.9h34.9v-6.9H37.8
		c-5.7,0-8.9-2.6-8.9-7.2c0-4.5,2.5-7.2,9.6-7.2h19.8V45.3z M58.3,83.9H23.3v6.9h34.9V83.9z M14.4,82.9c-2.5,0-4.5,2-4.5,4.4
		c0,2.5,2,4.5,4.5,4.5c2.4,0,4.4-2,4.4-4.5C18.8,84.9,16.8,82.9,14.4,82.9"/>
	<path style="clip-path:url(#SVGID_00000064323735032091141600000011486357961899373999_);fill:#FFFFFF;" d="M25.1,96
		c-0.9,1.4-1.5,3.1-1.5,5.9c0,3.5,1.7,6.4,4.1,8h-3.3v6.9h34.9v-6.9h-20c-5.9,0-9-2.5-9-6.9c0-2.3,0.5-3.8,1.3-5.3L25.1,96z
		 M38.6,132.2v16.2c-5.6-0.6-8.8-3.4-8.8-8C29.8,134.8,33.8,132.5,38.6,132.2 M41.2,125.2c-9.4,0-17.5,4.8-17.5,14.7
		c0,9.1,6.4,15.3,18.2,15.3c11.6,0,18.2-6.9,18.2-15.1c0-5.3-1.7-9-4.6-12l-4.4,4.1c1.7,2.3,2.8,4.7,2.8,7.6c0,4.3-2.9,8.1-9.6,8.8
		v-23.1C43.6,125.4,42.4,125.2,41.2,125.2 M52.4,161.6c0.7,1.3,1.4,3.3,1.4,5.1c0,2.5-0.9,3.6-4.2,3.6h-19v-8.7h-6.3v8.7H10.8
		l3.6,6.7h10v5h6.3v-5h20.2c6.3,0,9.3-3,9.3-7.9c0-2.7-0.7-5.1-1.6-6.7L52.4,161.6z M49.4,195.6c2.2,1.6,4.5,4.8,4.5,8.5
		c0,4.5-2.3,6.7-5.8,6.7c-3.2,0-5.2-2.8-5.2-7.2c0-3.7,0.6-6.1,1.5-8H49.4z M59.3,188.9h-24c-7.9,0-11.7,5.3-11.7,13.1
		c0,4.9,1.1,8.7,3.1,12l5.2-2.7c-1.5-2.7-2.2-5.5-2.2-9.1c0-4.3,2.1-6.6,5.9-6.6h2.6c-0.9,1.9-1.3,4.5-1.3,7.8
		c0,7.9,3.5,13.9,11.3,13.9c8.6,0,11.8-6.5,11.8-12.1c0-3.8-1.8-7.2-4.2-9.6h3.5V188.9z M24.4,221.1v6.8l17,4.1
		c2.7,0.7,5.9,1.3,7.7,1.7c-1.7,0.4-4.9,1.1-7.6,1.9l-17,4.7v5.5l17,4.7c2.7,0.7,5.9,1.5,7.7,1.9c-1.7,0.3-5,1.1-7.7,1.7l-17,4.1
		v6.8l34.9-9.6v-5.9L41.8,245c-2.7-0.7-5.9-1.5-7.5-1.8c1.7-0.3,4.8-1.1,7.5-1.8l17.6-4.7v-5.9L24.4,221.1z"/>
	<path style="clip-path:url(#SVGID_00000064323735032091141600000011486357961899373999_);fill:#FFFFFF;" d="M53.3,327.4L66,349.9
		c2.1-4,3.3-8.6,3.3-13.5c0-5.2-1.4-10.1-3.8-14.4l-4.6-8.2L53.3,327.4z M43.2,345.3l9.7,17.2c4.1-2,7.6-4.8,10.3-8.4L50.7,332
		L43.2,345.3z M32.9,327.1l7.7,13.6l7.5-13.3l-7.7-13.6L32.9,327.1z M32.4,364.2c2.5,0.7,5.2,1.1,8,1.1c2.9,0,5.6-0.4,8.2-1.2
		l-8.1-14.3L32.4,364.2z M30.3,331.7l-12.7,22.5c2.8,3.6,6.4,6.5,10.6,8.5l9.8-17.3L30.3,331.7z M27.7,327.1l-7.6-13.4l-4.6,8
		c-0.3,0.4-0.5,0.9-0.8,1.3l-0.3,0.5l0,0c-1.9,3.9-3.1,8.2-3.1,12.9c0,4.9,1.2,9.4,3.3,13.5L27.7,327.1z M37.8,309.2l-7.5-13.3
		l-7.6,13.3l7.6,13.4L37.8,309.2z M40.4,304.6l7.6-13.5l-7.5-13.2l-7.7,13.4L40.4,304.6z M58.3,309.3l-7.7-13.6L43,309.2l7.7,13.6
		L58.3,309.3z"/>
</g>
<rect x="10.6" y="377.1" class="st1" width="58.7" height="4.5"/>
</svg>
