<?xml version="1.0" encoding="utf-8"?>
<!-- Generator: Adobe Illustrator 28.0.0, SVG Export Plug-In . SVG Version: 6.00 Build 0)  -->
<svg version="1.1" id="Ebene_1" xmlns="http://www.w3.org/2000/svg" xmlns:xlink="http://www.w3.org/1999/xlink" x="0px" y="0px"
	 viewBox="0 0 351.5 447.9" style="enable-background:new 0 0 351.5 447.9;" xml:space="preserve">
<style type="text/css">
	.st0{clip-path:url(#SVGID_00000008853890664853134100000013800703341017936563_);fill:#092A4D;}
</style>
<g>
	<defs>
		<rect id="SVGID_1_" x="-0.3" y="0.4" width="351.5" height="447.9"/>
	</defs>
	<clipPath id="SVGID_00000068673812221344854040000017605985568315770257_">
		<use xlink:href="#SVGID_1_"  style="overflow:visible;"/>
	</clipPath>
	<path style="clip-path:url(#SVGID_00000068673812221344854040000017605985568315770257_);fill:#092A4D;" d="M300.1,290
		c0,21.6-5.4,42-14.8,59.9l-56.4-100l33.8-59.9l20.4,36.3C293.9,245,300.1,266.8,300.1,290 M251.2,169.6l-33.8,59.9l-34.1-60.5
		l33.8-59.9L251.2,169.6z M205.7,88.8l-33.8,59.9l-33.3-59l34-59.6L205.7,88.8z M127,109.9l33.4,59.1L127,228.2l-33.5-59.4
		L127,109.9z M81.9,189l33.6,59.5L58.4,349.7C49,331.9,43.7,311.6,43.7,290c0-20.6,4.9-40,13.5-57.2l-0.2,0l1.4-2.4
		c1.1-2,2.2-4,3.4-5.9L81.9,189z M70.7,368.7l56.3-99.8l34.1,60.5l-43.5,77C99.2,397.7,83.1,384.7,70.7,368.7 M136.6,413.6l36-63.8
		l35.8,63.5c-11.6,3.5-23.8,5.3-36.5,5.3C159.6,418.6,147.8,416.8,136.6,413.6 M172.6,309l-34.1-60.5l33.4-59.2l34.1,60.5L172.6,309
		z M227.2,405.9l-43.2-76.5l33.4-59.2l55.6,98.6C260.9,384.4,245.2,397.2,227.2,405.9 M351.2,0.4H-0.3v447.9h351.5V0.4z"/>
</g>
</svg>
